<svg width="527" height="396" viewBox="0 0 527 396" fill="none" xmlns="http://www.w3.org/2000/svg">
<path d="M364.419 115.548C328.051 81.4042 285.443 72.5895 274.185 70.791C281.772 50.2956 293.491 19.828 296.409 15.3197C298.297 15.0822 300.198 14.9733 302.1 14.9936C310.372 14.9936 328.085 16.7138 353.733 28.26C390.774 44.9329 400.619 63.6857 402.572 68.2728L364.419 115.548Z" fill="white"/>
<path d="M302.1 17.2427C310.193 17.2427 327.546 18.9403 352.779 30.3067C386.24 45.3943 397.049 62.2584 399.922 67.9585L364.206 112.266C346.539 96.3419 325.911 84.0632 303.503 76.132C294.961 73.0526 286.185 70.6727 277.259 69.0151C285.645 46.4511 294.759 23.2238 297.823 17.4226C298.822 17.3327 300.259 17.2427 302.122 17.2427H302.1ZM302.122 12.7456C299.841 12.6977 297.561 12.8558 295.309 13.2179C292.682 14.0948 271.131 72.6242 271.131 72.6242C271.131 72.6242 322.281 77.852 364.655 118.854L405.063 68.6889C405.063 68.6889 398.329 45.9115 354.553 26.2143C328.926 14.6681 311.068 12.7231 302.033 12.7231L302.122 12.7456Z" fill="#A0C6F4"/>
<path d="M278.618 77.1772C278.618 77.1772 328.916 82.2593 359.896 110.76" stroke="white" stroke-width="0.671338" stroke-linecap="round" stroke-linejoin="round"/>
<path d="M322.034 74.7156L340.802 38.1768L360.086 76.2785L322.034 74.7156Z" fill="#A0C6F4"/>
<path d="M325.683 74.1976L344.451 37.6592L363.734 75.7605L325.683 74.1976Z" stroke="white" stroke-width="0.671338" stroke-linecap="round" stroke-linejoin="round"/>
<path d="M308.083 10.519C308.083 10.519 364.497 15.6457 399.518 57.3336" stroke="white" stroke-width="0.671338" stroke-linecap="round" stroke-linejoin="round"/>
<path d="M336.896 172.437C333.798 170.188 331.767 168.625 331.767 168.625C332.619 167.501 346.19 153.009 354.047 141.339C354.047 141.339 338.153 173.37 336.896 172.437Z" fill="white"/>
<path d="M144.63 66.9014C146.145 69.4312 146.807 68.4188 151.173 68.0254C155.54 67.632 161.758 70.8813 163.936 76.2667C166.113 81.6515 165.451 82.484 164.273 83.158C163.094 83.8327 154.709 84.8444 154.372 86.5308" stroke="white" stroke-width="0.671338" stroke-linecap="round" stroke-linejoin="round"/>
<path d="M257.74 340.615L253.823 333.993L239.949 357.164L243.587 359.975L257.74 340.615Z" fill="#F9865F"/>
<path d="M165.596 283.222C165.596 283.222 158.402 271.518 161.488 265.773L184.431 268.235L165.596 283.222Z" fill="#F9865F"/>
<path d="M165.597 283.223L166.967 286.393L162.735 302.942C162.467 303.964 162.494 305.041 162.809 306.049C163.125 307.057 163.717 307.956 164.52 308.642L185.499 277.579C186.46 276.149 186.881 274.423 186.686 272.71C186.49 270.998 185.692 269.411 184.432 268.236L179.74 263.874L165.597 283.223Z" fill="black"/>
<path d="M154.373 86.5759C160.939 86.4188 169.268 86.0026 167.595 80.9548C165.922 75.907 159.738 63.4501 145.539 67.1937C145.539 67.1937 140.544 71.3647 146.785 78.875C153.025 86.3853 154.373 86.5759 154.373 86.5759Z" fill="#2A1E33"/>
<path d="M187.62 268.46C187.62 268.46 176.395 235.295 185.891 220.735C193.749 208.717 219.318 228.256 222.82 230.854L241.128 197.778C241.128 197.778 236.907 191.842 226.535 186.029C216.164 180.217 173.297 162.813 153.149 194.652C145.707 206.412 145.595 256.903 159.884 276.252L187.62 268.46Z" fill="#3B3B5F"/>
<path d="M187.62 268.46C187.62 268.46 176.396 235.295 185.892 220.735C193.749 208.716 219.318 228.256 222.821 230.854" stroke="white" stroke-width="0.671338" stroke-linecap="round" stroke-linejoin="round"/>
<path d="M241.128 197.777C232.799 206.558 208.116 249.325 202.56 269.731C195.141 297.073 197.936 319.749 238.748 364.169L258.47 335.387C258.47 335.387 244.596 314.296 247.245 294.408C250.995 265.638 271.434 237.745 281.772 220.049L241.128 197.777Z" fill="#3B3B5F"/>
<path d="M244.26 201.487L277.069 227.289L286.88 212.359L244.26 201.487Z" fill="#8C3C6C"/>
<path d="M432.743 174.37C437.861 175.472 441.76 177.425 444.439 180.228C447.122 183.038 445.909 184.5 444.933 185.355C443.957 186.208 440.174 185.23 436.885 182.307C433.596 179.384 432.743 174.37 432.743 174.37Z" fill="#FF8A66"/>
<path d="M331.767 168.625C332.619 167.501 346.19 153.009 354.047 141.339C354.047 141.339 377.787 167.984 380.369 168.85C381.323 169.164 387.104 169.086 394.378 169.019C406.59 168.884 422.832 168.76 426.424 170.57C432.148 173.425 435.583 174.865 437.008 178.879C438.434 182.892 439.007 185.512 435.583 185.748C431.576 186.04 429.005 180.879 429.005 180.879C425.231 182.91 421.301 184.635 417.253 186.04C417.253 186.04 386.823 197.868 366.484 192.145C360.95 190.582 331.767 168.625 331.767 168.625Z" fill="#F9865F"/>
<path d="M147.312 62.1908C144.708 63.1915 143.115 64.3832 144.63 66.9015C146.145 69.4198 146.807 68.4195 151.173 68.0261C155.54 67.632 161.758 70.8813 163.936 76.2668C166.113 81.6522 165.451 82.484 164.272 83.1587C163.094 83.8327 154.709 84.8451 154.373 86.5315C154.036 88.2179 157.74 93.1758 165.496 92.8495L167.337 92.5125C167.337 92.5125 183.579 108.398 185.936 110.748C188.294 113.098 205.557 124.824 215.12 127.207C222.349 129.017 237.008 126.69 245.808 124.959C250.085 124.116 252.992 123.43 252.992 123.43C252.992 123.43 246.381 111.501 245.034 93.1758C245.034 93.1758 229.23 95.7168 218.723 98.0322C218.723 98.0322 194.209 84.3389 182.288 78.2794C182.288 78.2794 171.872 65.5074 167 63.821C162.129 62.1346 150.837 60.853 147.312 62.1908Z" fill="#F9865F"/>
<path d="M245.764 125.015C250.04 124.172 252.948 123.486 252.948 123.486C252.948 123.486 244.945 113.368 243.609 95.0645C243.609 95.0645 239.994 98.9656 241.117 109.342C242.531 122.452 245.764 125.015 245.764 125.015Z" fill="white"/>
<path d="M243.271 93.0073C243.271 93.0073 243.496 115.414 249.49 124.756L251.634 123.891C251.634 123.891 223.403 156.978 214.267 178.597C212.774 182.139 272.893 220.6 281.772 220.061C281.772 220.061 311.068 175.281 321.058 162.003L331.834 170.368C331.834 170.368 352.947 148.939 354.081 141.34C354.081 141.34 333.685 116.482 317.04 109.197C300.393 101.911 285.364 89.4546 267.438 89.848C251.925 90.0843 243.271 93.0073 243.271 93.0073Z" fill="#471C36"/>
<path d="M331.79 170.368L321.025 162.003L322.743 157.326L331.79 170.368Z" fill="white"/>
<path d="M348.177 81.7868C346.292 87.6671 340.848 104.655 334.775 106.746C328.703 108.837 322.428 106.217 322.428 106.217L315.963 109.522C315.244 111.692 310.137 113.559 303.548 113.818C298.666 114.008 295.691 107.724 297.139 103.182C297.801 101.09 300.281 90.8149 300.281 90.8149C300.281 90.8149 305.513 71.5227 310.384 67.5424C315.256 63.5626 319.723 59.6051 332.575 64.8106C352.151 72.7701 348.177 81.7868 348.177 81.7868Z" fill="#F9865F"/>
<path d="M309.149 82.6304C308.285 86.2281 304.547 93.4463 302.089 92.1419C299.631 90.8382 298.778 87.5325 300.506 81.1803C302.235 74.8281 303.682 60.4151 308.577 57.8181C313.471 55.221 315.637 58.2453 315.637 58.2453C315.637 58.2453 313.471 47.7222 319.813 46.2719C319.813 46.2719 321.968 45.2712 321.104 52.4779C321.943 50.4962 323.42 48.8524 325.299 47.8074C327.178 46.7625 329.352 46.3763 331.475 46.7103C339.333 47.576 342.127 58.6838 342.127 58.6838C342.355 57.7663 342.899 56.9587 343.663 56.4034C344.426 55.848 345.361 55.5806 346.303 55.6483C349.906 55.6483 355.384 60.9885 354.081 66.8909C354.081 66.8909 363.297 64.0016 368.191 71.3882C373.085 78.7742 372.512 86.8242 360.704 89.9949C348.357 93.3114 348.469 78.887 346.594 77.0093C344.72 75.1315 342.711 72.9732 335.797 75.5706C328.882 78.1673 321.676 70.5221 321.676 70.5221C321.676 70.5221 320.553 79.7524 319.375 80.6405C318.196 81.5287 315.918 82.6646 316.49 78.3358C317.062 74.0077 317.792 74.4347 317.354 73.288C316.917 72.1414 314.975 68.4873 310.878 71.703C306.276 75.2329 309.149 82.6304 309.149 82.6304Z" fill="#2A1E33"/>
<path d="M311.113 84.2262C308.363 81.9779 306.454 77.8405 308.868 73.7708C311.281 69.7012 315.244 69.15 316.445 70.6901C317.646 72.2308 318.117 74.8275 316.983 77.9083" stroke="#2A1E33" stroke-width="0.671338" stroke-linecap="round" stroke-linejoin="round"/>
<path d="M243.597 359.975L244.967 363.135L240.735 379.684C240.467 380.706 240.494 381.783 240.809 382.791C241.125 383.799 241.717 384.698 242.52 385.384L263.476 354.32C264.438 352.891 264.859 351.165 264.663 349.452C264.468 347.739 263.669 346.153 262.41 344.978L257.718 340.615L243.597 359.975Z" fill="black"/>
<path d="M315.637 58.2445C315.637 58.2445 314.02 53.0166 309.205 51.6338" stroke="#2A1E33" stroke-width="0.671338" stroke-linecap="round" stroke-linejoin="round"/>
<path d="M213.549 177.012L271.671 95.6938" stroke="white" stroke-width="0.671338" stroke-linecap="round" stroke-linejoin="round"/>
<path d="M295.634 101.383C293.535 104.114 292.581 115.852 302.223 116.605C307.722 117.153 313.252 115.937 318.016 113.131" stroke="white" stroke-width="0.671338" stroke-linecap="round" stroke-linejoin="round"/>
<path d="M166.944 63.8774C166.944 63.8774 173.589 72.6808 174.633 75.8172" stroke="white" stroke-width="0.671338" stroke-linecap="round" stroke-linejoin="round"/>
<path d="M415.728 181.959C415.728 181.959 420.217 185.613 429.006 180.834C432.205 179.114 429.926 175.056 425.863 176.068C421.8 177.079 416.996 175.562 416.996 175.562" stroke="white" stroke-width="0.671338" stroke-linecap="round" stroke-linejoin="round"/>
<path d="M434.271 174.876C434.271 174.876 438.525 179.857 438.412 182.814" stroke="white" stroke-width="0.671338" stroke-linecap="round" stroke-linejoin="round"/>
<path d="M371.592 174.337C371.592 174.337 375.442 169.199 380.37 168.851" stroke="white" stroke-width="0.671338" stroke-linecap="round" stroke-linejoin="round"/>
<path d="M209.228 106.385C209.228 106.385 211.472 99.37 218.679 98.0884" stroke="white" stroke-width="0.671338" stroke-linecap="round" stroke-linejoin="round"/>
<path d="M228.747 212.832L220.149 229.257C220.149 229.257 191.818 277.275 201.437 308.304" stroke="white" stroke-width="0.671338" stroke-linecap="round" stroke-linejoin="round"/>
<path d="M253.845 267.92L281.716 220.061C281.716 220.061 318.252 166.984 321.99 159.553L334.887 135.662" stroke="white" stroke-width="0.671338" stroke-linecap="round" stroke-linejoin="round"/>
<path d="M217.455 182.117C217.455 182.117 267.034 218.318 281.727 220.061" stroke="white" stroke-width="0.671338" stroke-linecap="round" stroke-linejoin="round"/>
<path d="M243.271 93.0073C243.271 93.0073 243.271 115.729 249.344 125.038" stroke="white" stroke-width="0.671338" stroke-linecap="round" stroke-linejoin="round"/>
<path d="M352.454 137.741C350.893 147.096 330.206 166.759 330.206 166.759" stroke="white" stroke-width="0.671338" stroke-linecap="round" stroke-linejoin="round"/>
<path d="M198.047 254.35C199.672 254.35 200.988 253.032 200.988 251.405C200.988 249.778 199.672 248.459 198.047 248.459C196.423 248.459 195.106 249.778 195.106 251.405C195.106 253.032 196.423 254.35 198.047 254.35Z" fill="white"/>
<path d="M474.219 314.758L472.591 303.481L482.188 309.879L477.171 310.969L474.219 314.758Z" stroke="white" stroke-width="0.671338" stroke-linecap="round" stroke-linejoin="round"/>
<path d="M155.72 122.249C137.525 106.161 107.454 146.264 217.455 273.913C280.93 347.552 330.824 354.151 337.559 328.53C349.681 282.569 305.905 270.956 322.204 288.955C345.888 315.129 413.246 320.66 463.454 296.241C512.989 272.136 482.536 234.71 479.461 232.517" stroke="white" stroke-width="0.671338" stroke-linecap="round" stroke-linejoin="round"/>
<path d="M464.285 298.951C465.909 298.951 467.225 297.632 467.225 296.005C467.225 294.378 465.909 293.06 464.285 293.06C462.66 293.06 461.344 294.378 461.344 296.005C461.344 297.632 462.66 298.951 464.285 298.951Z" fill="white"/>
<path d="M421.451 320.075L508.7 270.81" stroke="white" stroke-width="0.671338" stroke-linecap="round" stroke-linejoin="round"/>
<path d="M157.538 127.579C159.162 127.579 160.478 126.259 160.478 124.633C160.478 123.006 159.162 121.687 157.538 121.687C155.913 121.687 154.597 123.006 154.597 124.633C154.597 126.259 155.913 127.579 157.538 127.579Z" fill="white"/>
<path d="M232.597 70.0831C236.087 70.0831 238.916 67.2494 238.916 63.7535C238.916 60.2577 236.087 57.4238 232.597 57.4238C229.106 57.4238 226.277 60.2577 226.277 63.7535C226.277 67.2494 229.106 70.0831 232.597 70.0831Z" fill="#FF6D66"/>
<path d="M118.016 15.5117C117.465 15.5095 116.926 15.6711 116.466 15.9762C116.007 16.2812 115.649 16.7159 115.436 17.2251C115.224 17.7343 115.167 18.2953 115.273 18.8369C115.379 19.3785 115.643 19.8764 116.032 20.2674C116.421 20.6585 116.917 20.9251 117.457 21.0337C117.998 21.1422 118.558 21.0876 119.067 20.8769C119.577 20.6662 120.012 20.3089 120.318 19.8501C120.625 19.3913 120.788 18.8518 120.788 18.2999C120.788 17.5624 120.496 16.8549 119.977 16.3323C119.457 15.8097 118.752 15.5147 118.016 15.5117Z" fill="#A0C6F4"/>
<path d="M489.989 360.864C491.521 360.864 492.762 359.62 492.762 358.087C492.762 356.553 491.521 355.31 489.989 355.31C488.458 355.31 487.217 356.553 487.217 358.087C487.217 359.62 488.458 360.864 489.989 360.864Z" fill="#FAD8B0"/>
<path d="M440.387 232.506L410.519 218.486C409.992 218.226 409.55 217.821 409.243 217.319C408.937 216.817 408.779 216.239 408.787 215.651C408.796 215.062 408.97 214.489 409.29 213.996C409.611 213.503 410.064 213.111 410.597 212.865L466.114 188.401C466.503 188.228 466.924 188.14 467.349 188.14C467.774 188.14 468.195 188.228 468.583 188.401L506.748 204.793L440.387 232.506Z" fill="#2A1E33"/>
<path d="M438.58 186.411C438.647 198.778 440.421 232.507 440.421 232.507L506.781 204.748L505.288 157.81C505.269 157.144 505.085 156.494 504.754 155.916C504.422 155.339 503.954 154.853 503.389 154.501C502.825 154.149 502.181 153.943 501.518 153.9C500.855 153.858 500.191 153.98 499.586 154.257L442.464 180.34C441.299 180.866 440.311 181.72 439.622 182.797C438.932 183.875 438.57 185.131 438.58 186.411Z" fill="#121212"/>
<path d="M440.388 232.506L506.748 204.748L505.255 157.81C505.255 157.81 504.817 152.684 499.553 154.257" stroke="white" stroke-width="0.671338" stroke-linecap="round" stroke-linejoin="round"/>
<path d="M472.501 198.767L476.98 188.165" stroke="white" stroke-width="0.671338" stroke-linecap="round" stroke-linejoin="round"/>
<path d="M476.98 198.767L481.459 188.165" stroke="white" stroke-width="0.671338" stroke-linecap="round" stroke-linejoin="round"/>
<path d="M129.97 314.454C131.501 314.454 132.742 313.211 132.742 311.677C132.742 310.143 131.501 308.9 129.97 308.9C128.439 308.9 127.197 310.143 127.197 311.677C127.197 313.211 128.439 314.454 129.97 314.454Z" fill="#FF6D66"/>
<path d="M364.037 329.328C366.169 329.328 367.898 327.596 367.898 325.461C367.898 323.325 366.169 321.593 364.037 321.593C361.904 321.593 360.176 323.325 360.176 325.461C360.176 327.596 361.904 329.328 364.037 329.328Z" fill="#FF6D66"/>
<path d="M158.75 352.926C169.741 357.985 181.709 360.557 193.805 360.459C194.03 360.461 194.251 360.51 194.455 360.603C194.66 360.696 194.842 360.832 194.99 361C195.139 361.169 195.25 361.368 195.316 361.582C195.383 361.797 195.403 362.024 195.376 362.246L192.952 381.494C192.904 381.828 192.75 382.138 192.514 382.379C192.278 382.619 191.971 382.778 191.638 382.832C186.722 383.765 166.945 386.486 152.105 373.838C151.88 373.644 151.713 373.39 151.626 373.105C151.539 372.821 151.533 372.517 151.612 372.23L156.505 353.871C156.573 353.648 156.689 353.443 156.845 353.27C157.001 353.097 157.193 352.961 157.407 352.871C157.621 352.781 157.853 352.739 158.085 352.748C158.317 352.758 158.544 352.819 158.75 352.926Z" fill="#FFF7DC"/>
<path d="M160.49 358.547C160.49 358.547 169.043 370.588 172.096 372.32C175.15 374.051 191.628 364.203 191.628 364.203" stroke="white" stroke-width="0.671338" stroke-linecap="round" stroke-linejoin="round"/>
<path d="M180.167 370.656L189.158 379.909" stroke="white" stroke-width="0.671338" stroke-linecap="round" stroke-linejoin="round"/>
<path d="M167.674 368.869L157.156 371.735" stroke="white" stroke-width="0.671338" stroke-linecap="round" stroke-linejoin="round"/>
<path d="M434.023 125.138H423.978V135.201H434.023V125.138Z" fill="#FFE1C0"/>
<path d="M425.335 260.826L428.321 266.01L431.307 271.192H425.335H419.375L422.349 266.01L425.335 260.826Z" fill="#A0C6F4"/>
<path d="M183.949 31.3859L184.735 7.8662C184.645 5.61768 185.543 4.97684 186.89 4.67329C193.266 3.26795 212.706 -1.06047 233.731 5.17921C236.458 5.98869 236.368 7.42775 236.323 8.73189L235.572 31.1498C235.516 31.5687 235.375 31.9715 235.155 32.3322C234.935 32.6929 234.642 33.0035 234.296 33.2439C233.949 33.4844 233.556 33.6493 233.141 33.7282C232.726 33.8071 232.3 33.7981 231.89 33.7019C224.248 32.7859 216.551 32.4102 208.857 32.5776C201.456 32.546 194.066 33.144 186.767 34.3652C184.679 34.7586 183.893 33.2297 183.949 31.3859Z" stroke="white" stroke-width="0.671338" stroke-linecap="round" stroke-linejoin="round"/>
<path d="M191.043 28.0132L203.323 13.6226L216.905 27.0576C212.213 25.4723 191.043 28.0132 191.043 28.0132Z" stroke="white" stroke-width="0.671338" stroke-linecap="round" stroke-linejoin="round"/>
<path d="M210.832 20.2332L220.755 12.2734L229.117 18.2545L229.431 27.5972L216.894 26.9901" stroke="white" stroke-width="0.671338" stroke-linecap="round" stroke-linejoin="round"/>
<path d="M196.347 12.4959C196.461 11.3654 195.479 10.3402 194.153 10.206C192.827 10.0717 191.659 10.8793 191.545 12.0099C191.431 13.1404 192.414 14.1657 193.74 14.2999C195.066 14.4341 196.233 13.6265 196.347 12.4959Z" stroke="white" stroke-width="0.671338" stroke-linecap="round" stroke-linejoin="round"/>
<path d="M421.238 336.861L429.466 352.083C430.33 353.443 430.027 354.22 429.274 354.916C425.75 358.188 415.008 368.149 399.294 372.039C397.262 372.545 396.78 371.589 396.33 370.746L388.473 356.232C388.354 355.944 388.297 355.635 388.303 355.325C388.309 355.014 388.38 354.707 388.511 354.425C388.642 354.143 388.83 353.891 389.063 353.685C389.296 353.48 389.569 353.325 389.865 353.23C395.06 350.971 400.087 348.341 404.906 345.36C409.652 342.652 414.159 339.541 418.375 336.063C419.498 334.938 420.62 335.669 421.238 336.861Z" stroke="white" stroke-width="0.671338" stroke-linecap="round" stroke-linejoin="round"/>
<path d="M418.006 341.684L415.547 355.389L401.943 351.915C405.479 351.15 418.006 341.684 418.006 341.684Z" stroke="white" stroke-width="0.671338" stroke-linecap="round" stroke-linejoin="round"/>
<path d="M408.296 353.961L404.94 362.707L397.42 362.022L393.749 356.198L401.932 351.915" stroke="white" stroke-width="0.671338" stroke-linecap="round" stroke-linejoin="round"/>
<path d="M422.568 354.197C423.459 353.789 423.902 352.845 423.557 352.088C423.211 351.332 422.209 351.049 421.318 351.456C420.427 351.864 419.985 352.808 420.33 353.565C420.676 354.322 421.678 354.604 422.568 354.197Z" stroke="white" stroke-width="0.671338" stroke-linecap="round" stroke-linejoin="round"/>
<path d="M381.167 76.9526L414.605 102.586C414.779 102.721 414.978 102.819 415.19 102.875C415.402 102.931 415.623 102.945 415.84 102.915C416.058 102.884 416.267 102.811 416.456 102.698C416.645 102.586 416.809 102.437 416.939 102.26L421.991 95.4016C422.239 95.0599 422.346 94.6356 422.289 94.2167C422.233 93.7978 422.017 93.4172 421.688 93.1533L388.721 66.7218C388.546 66.5821 388.345 66.4795 388.13 66.4201C387.913 66.3607 387.689 66.3457 387.467 66.3762C387.245 66.4067 387.033 66.482 386.841 66.5974C386.649 66.7129 386.483 66.8662 386.353 67.0479L380.83 74.6929C380.582 75.0393 380.478 75.4696 380.542 75.8912C380.604 76.3128 380.828 76.6935 381.167 76.9526Z" fill="white" stroke="white" stroke-width="0.671338" stroke-linecap="round" stroke-linejoin="round"/>
<path d="M383.636 75.8059L391.739 81.5062L396.533 75.7837L388.417 69.0039L383.636 75.8059Z" fill="#FF6D66"/>
<path d="M394.793 83.7322L402.92 90.1851L407.275 84.8224L399.092 78.1782L394.793 83.7322Z" fill="#FAD8B0"/>
<path d="M405.647 92.6583L413.763 98.3587L417.624 93.3894L409.947 86.9473L405.647 92.6583Z" fill="#A0C6F4"/>
<path d="M447.897 41.1105L455.518 105.194C455.553 105.531 455.655 105.858 455.818 106.155C455.981 106.452 456.202 106.713 456.468 106.923C456.735 107.133 457.04 107.287 457.366 107.376C457.693 107.465 458.034 107.488 458.369 107.442L471.278 105.666C471.926 105.579 472.514 105.243 472.918 104.729C473.323 104.214 473.511 103.562 473.444 102.911L467.192 38.446C467.158 38.1055 467.055 37.7754 466.889 37.4758C466.724 37.1763 466.5 36.9134 466.23 36.7032C465.961 36.493 465.651 36.3398 465.32 36.2528C464.99 36.1659 464.645 36.1471 464.307 36.1975L450.041 38.2886C449.386 38.3836 448.793 38.7326 448.393 39.2604C447.992 39.7882 447.813 40.4526 447.897 41.1105Z" fill="white" stroke="white" stroke-width="0.671338" stroke-linecap="round" stroke-linejoin="round"/>
<path d="M451.791 42.6062L454.204 57.6039L465.586 56.7607L464.34 40.605L451.791 42.6062Z" fill="#FF6D66"/>
<path d="M455.024 63.3377L456.63 79.1559L467.158 78.212L465.699 62.1348L455.024 63.3377Z" fill="#91BA83"/>
<path d="M456.832 84.8107L459.245 99.8084L468.819 98.7517L467.663 83.4277L456.832 84.8107Z" fill="#FAD8B0"/>
<path d="M431.262 54.7596L452.364 116.898C452.45 117.151 452.585 117.384 452.762 117.584C452.939 117.785 453.154 117.948 453.394 118.064C453.635 118.181 453.895 118.247 454.162 118.261C454.428 118.275 454.695 118.236 454.946 118.146L468.169 113.379C468.657 113.201 469.058 112.84 469.287 112.374C469.518 111.906 469.559 111.369 469.404 110.872L449.592 48.1265C449.508 47.8659 449.374 47.625 449.195 47.4181C449.016 47.2114 448.798 47.0429 448.552 46.9232C448.307 46.8033 448.04 46.7346 447.767 46.7212C447.494 46.7077 447.221 46.7497 446.965 46.8448L432.463 52.23C431.97 52.408 431.568 52.7737 431.343 53.2474C431.118 53.721 431.089 54.2646 431.262 54.7596Z" fill="white" stroke="white" stroke-width="0.671338" stroke-linecap="round" stroke-linejoin="round"/>
<path d="M435.538 55.8951L441.016 70.0719L451.971 66.868L447.403 51.3193L435.538 55.8951Z" fill="#A0C6F4"/>
<path d="M443.014 75.5026L447.863 90.6466L457.965 87.5208L453.206 72.0962L443.014 75.5026Z" fill="#F9865F"/>
<path d="M449.232 96.1325L454.71 110.298L463.858 107.263L459.548 92.5127L449.232 96.1325Z" fill="#FAD8B0"/>
<path d="M272.208 133.245H165.631C162.233 133.245 159.479 136.003 159.479 139.405V153.853C159.479 157.255 162.233 160.014 165.631 160.014H272.208C275.605 160.014 278.36 157.255 278.36 153.853V139.405C278.36 136.003 275.605 133.245 272.208 133.245Z" fill="#7595EC"/>
<path d="M232.271 141.125H174.172C173.05 141.125 172.141 142.036 172.141 143.16C172.141 144.285 173.05 145.196 174.172 145.196H232.271C233.393 145.196 234.302 144.285 234.302 143.16C234.302 142.036 233.393 141.125 232.271 141.125Z" fill="white"/>
<path d="M172.725 150.479H271.49" stroke="white" stroke-width="0.671338" stroke-linecap="round" stroke-linejoin="round"/>
<path d="M122.189 82.877L123.869 84.7198C124.211 85.0937 124.389 85.5885 124.366 86.0953C124.344 86.6015 124.121 87.0782 123.747 87.4199L120.996 89.9374C120.622 90.2791 120.128 90.4584 119.623 90.4355C119.117 90.4127 118.641 90.1892 118.299 89.8152L116.619 87.9724L122.189 82.877Z" fill="#91BA83"/>
<path d="M107.055 79.2945L114.982 87.9856C115.391 88.4348 116.087 88.4663 116.536 88.0561L122.013 83.0439C122.462 82.6337 122.494 81.9369 122.084 81.4878L114.158 72.7966C113.748 72.3475 113.052 72.3159 112.604 72.7261L107.126 77.7383C106.677 78.1485 106.646 78.8454 107.055 79.2945Z" stroke="white" stroke-width="0.671338" stroke-linecap="round" stroke-linejoin="round"/>
<path d="M98.7762 118.787H88.8203V127.893H98.7762V118.787Z" fill="#FF6D66"/>
<path d="M88.8205 112.929V118.786H82.8711" stroke="white" stroke-width="0.671338" stroke-linecap="round" stroke-linejoin="round"/>
<path d="M426.817 15.9502H416.86V25.0568H426.817V15.9502Z" fill="#FAD8B0"/>
<path d="M416.861 10.0923V15.9498H410.912" stroke="white" stroke-width="0.671338" stroke-linecap="round" stroke-linejoin="round"/>
<path d="M147.379 72.2413C44.1126 29.3844 -35.313 111.928 159.266 238.318C174.588 248.279 198.092 251.809 198.092 251.809" stroke="white" stroke-width="0.671338" stroke-linecap="round" stroke-linejoin="round"/>
<path d="M52.4301 78.0653C54.0543 78.0653 55.3709 76.7468 55.3709 75.1201C55.3709 73.4935 54.0543 72.1743 52.4301 72.1743C50.8059 72.1743 49.4893 73.4935 49.4893 75.1201C49.4893 76.7468 50.8059 78.0653 52.4301 78.0653Z" fill="white"/>
<path d="M33.708 58.9419L36.9295 55.8389L44.3265 60.0886L48.0531 71.5898L36.6825 66.823L33.708 58.9419Z" stroke="white" stroke-width="0.671338" stroke-linecap="round" stroke-linejoin="round"/>
<path d="M36.929 55.8387L33.7076 58.9416L31.9004 56.7493L34.9871 53.7812L36.929 55.8387Z" stroke="white" stroke-width="0.671338" stroke-linecap="round" stroke-linejoin="round"/>
<path d="M48.0523 71.5898L40.6553 63.4614" stroke="white" stroke-width="0.671338" stroke-linecap="round" stroke-linejoin="round"/>
<path d="M65.9223 277.983L73.9365 319.401C73.9795 319.616 74.0647 319.821 74.1862 320.003C74.3084 320.185 74.4655 320.341 74.6481 320.462C74.8307 320.583 75.0355 320.667 75.2503 320.709C75.4651 320.751 75.6867 320.749 75.9008 320.705L84.2294 318.929C84.647 318.839 85.0129 318.591 85.2519 318.237C85.4902 317.883 85.5829 317.45 85.509 317.029L78.3928 275.352C78.3546 275.132 78.2713 274.922 78.1491 274.734C78.0276 274.547 77.8685 274.387 77.6832 274.263C77.4973 274.139 77.2885 274.054 77.069 274.013C76.8494 273.972 76.6239 273.976 76.4063 274.026L67.213 276.072C67.003 276.112 66.8029 276.193 66.6242 276.311C66.4456 276.43 66.2919 276.581 66.1721 276.759C66.0522 276.936 65.9684 277.136 65.9256 277.346C65.8827 277.556 65.8816 277.772 65.9223 277.983Z" fill="white" stroke="white" stroke-width="0.671338" stroke-linecap="round" stroke-linejoin="round"/>
<path d="M68.5605 278.77L70.8498 288.427L78.2137 287.336L76.6421 276.87L68.5605 278.77Z" fill="#FF6D66"/>
<path d="M71.6582 292.126L73.454 302.346L80.2674 301.233L78.5502 290.822L71.6582 292.126Z" fill="#FAD8B0"/>
<path d="M73.8574 306.022L76.1359 315.679L82.321 314.522L80.8507 304.605L73.8574 306.022Z" fill="#A0C6F4"/>
<path d="M295.702 381.764L329.601 372.68L330.902 376.356L296.611 385.271L295.702 381.764Z" stroke="white" stroke-width="0.671338" stroke-linecap="round" stroke-linejoin="round"/>
<path d="M290.987 377.019L291.976 380.1" stroke="white" stroke-width="0.671338" stroke-linecap="round" stroke-linejoin="round"/>
<path d="M290.033 379.031L292.896 378.042" stroke="white" stroke-width="0.671338" stroke-linecap="round" stroke-linejoin="round"/>
<path d="M289.349 388.791L291.189 394.614" stroke="white" stroke-width="0.671338" stroke-linecap="round" stroke-linejoin="round"/>
<path d="M287.777 392.479L292.873 390.859" stroke="white" stroke-width="0.671338" stroke-linecap="round" stroke-linejoin="round"/>
<path d="M281.593 379.189L284.006 386.902" stroke="white" stroke-width="0.671338" stroke-linecap="round" stroke-linejoin="round"/>
<path d="M279.202 383.99L286.34 381.708" stroke="white" stroke-width="0.671338" stroke-linecap="round" stroke-linejoin="round"/>
<path d="M48.4571 12.8243L27.0068 3.1218L27.8936 0.670898L49.4786 10.6207L48.4571 12.8243Z" stroke="white" stroke-width="0.449796" stroke-linecap="round" stroke-linejoin="round"/>
<path d="M48.8945 17.2991L49.6915 15.2754" stroke="white" stroke-width="0.449796" stroke-linecap="round" stroke-linejoin="round"/>
<path d="M50.2412 16.6585L48.333 15.9502" stroke="white" stroke-width="0.449796" stroke-linecap="round" stroke-linejoin="round"/>
<path d="M54.7314 11.88L56.2467 8.08008" stroke="white" stroke-width="0.449796" stroke-linecap="round" stroke-linejoin="round"/>
<path d="M57.1106 10.6323L53.7881 9.30566" stroke="white" stroke-width="0.449796" stroke-linecap="round" stroke-linejoin="round"/>
<path d="M54.6865 20.1656L56.707 15.1401" stroke="white" stroke-width="0.449796" stroke-linecap="round" stroke-linejoin="round"/>
<path d="M57.9644 18.6929L53.2949 16.8379" stroke="white" stroke-width="0.449796" stroke-linecap="round" stroke-linejoin="round"/>
<path d="M128.657 194.337C113.526 183.432 98.6646 166.478 105.186 149.063C105.186 149.063 115.614 142.104 132.125 150.806L148.648 159.553L128.657 194.337Z" fill="url(#paint0_linear_1000_1483)"/>
<path d="M121.798 266.999C114.985 263.772 85.9354 248.617 80.7608 222.725C76.2708 200.374 93.3772 170.211 101.931 156.876C101.38 174.562 119.116 189.537 127.668 195.698C134.946 201.058 142.977 205.309 151.498 208.312L121.798 266.999Z" fill="white"/>
<path d="M100.629 162.138C102.481 173.898 111.438 186.074 126.682 197.069C133.559 202.153 141.117 206.245 149.13 209.223L121.069 264.762C112.493 260.489 87.1592 246.031 82.4337 222.399C78.5164 202.758 91.8062 176.709 100.652 162.138H100.629ZM105.209 149.063C105.209 149.063 73.0504 192.595 79.134 223.062C85.2177 253.53 122.596 269.158 122.596 269.158L153.879 207.323C144.102 203.736 137.749 200.813 128.679 194.27C113.549 183.365 98.6874 166.411 105.209 148.996V149.063Z" fill="url(#paint1_linear_1000_1483)"/>
<path d="M96.7334 174.358C97.6766 180.021 99.9108 185.39 103.263 190.046C106.615 194.703 110.996 198.522 116.063 201.206" stroke="white" stroke-width="0.671338" stroke-linecap="round" stroke-linejoin="round"/>
<path d="M125.401 207.458L142.855 216.823" stroke="white" stroke-width="0.671338" stroke-linecap="round" stroke-linejoin="round"/>
<path d="M99.2256 199.34C99.2256 199.34 104.838 211.831 122.91 219.948" stroke="white" stroke-width="0.671338" stroke-linecap="round" stroke-linejoin="round"/>
<path d="M84.8809 201.207C84.8809 201.207 85.5099 214.327 94.2313 218.701" stroke="white" stroke-width="0.671338" stroke-linecap="round" stroke-linejoin="round"/>
<path d="M104.838 155.629C104.838 155.629 103.221 172.493 128.656 194.338" stroke="white" stroke-width="0.671338" stroke-linecap="round" stroke-linejoin="round"/>
<path d="M114.188 158.754C114.188 158.754 122.292 158.124 134.135 166.871" stroke="white" stroke-width="0.671338" stroke-linecap="round" stroke-linejoin="round"/>
<path d="M76.024 212.517C75.5078 220.871 76.5517 251.147 120.328 270.462" stroke="white" stroke-width="0.671338" stroke-linecap="round" stroke-linejoin="round"/>
<path d="M355.597 195.675L337.031 232.945C337.031 232.945 349.626 237.588 339.781 252.058C339.781 252.058 363.061 261.726 378.293 236.622C393.525 211.516 355.597 195.675 355.597 195.675Z" fill="url(#paint2_linear_1000_1483)"/>
<path d="M313.099 309.586C303.705 309.586 293.793 305.741 283.612 298.152L318.342 240.5L339.006 253.53L339.141 253.586C342.752 254.914 346.574 255.577 350.422 255.543C356.948 255.583 363.322 253.565 368.639 249.775L343.249 293.34C343.193 293.42 332.26 309.62 313.099 309.62V309.586Z" fill="white"/>
<path d="M318.904 242.86L337.985 254.901L338.232 255.058L338.491 255.16C342.308 256.574 346.351 257.282 350.422 257.251C355.099 257.268 359.728 256.296 364.004 254.395L341.847 292.362C341.128 293.419 330.846 307.899 313.111 307.899C304.457 307.899 295.298 304.47 285.847 297.702L318.904 242.86ZM378.293 236.609C369.684 250.797 358.515 253.878 350.422 253.878C346.794 253.908 343.191 253.287 339.781 252.045L317.792 238.183L281.436 298.579C293.581 307.955 304.21 311.328 313.111 311.328C333.439 311.328 344.708 294.217 344.708 294.217L378.293 236.666V236.609Z" fill="url(#paint3_linear_1000_1483)"/>
<path d="M337.031 232.944C337.031 232.944 350.882 237.846 339.781 252.057" stroke="white" stroke-width="0.671338" stroke-linecap="round" stroke-linejoin="round"/>
<path d="M317.354 236.88C317.354 236.88 336.222 254.193 346.661 254.069C357.1 253.946 369.357 251.473 376.575 238.993" stroke="white" stroke-width="0.671338" stroke-linecap="round" stroke-linejoin="round"/>
<path d="M319.678 259.275C319.678 259.275 332.62 270.787 347.1 267.089" stroke="white" stroke-width="0.671338" stroke-linecap="round" stroke-linejoin="round"/>
<path d="M333.271 276.477C333.271 276.477 340.061 281.569 349.557 276.746" stroke="white" stroke-width="0.671338" stroke-linecap="round" stroke-linejoin="round"/>
<path d="M302.021 283.582C302.021 283.582 317.736 299.198 342.374 288.9" stroke="white" stroke-width="0.671338" stroke-linecap="round" stroke-linejoin="round"/>
<path d="M310.552 268.348C310.552 268.348 316.95 272.935 320.957 274.397" stroke="white" stroke-width="0.671338" stroke-linecap="round" stroke-linejoin="round"/>
<path d="M358.784 206.491C358.784 206.491 373.096 211.179 374.813 230.1" stroke="white" stroke-width="0.671338" stroke-linecap="round" stroke-linejoin="round"/>
<path d="M365.979 229.864C365.979 229.864 372.568 240.083 361.434 250.292" stroke="white" stroke-width="0.671338" stroke-linecap="round" stroke-linejoin="round"/>
<path d="M282.715 295.769C282.715 295.769 318.633 340.829 344.731 288.135" stroke="white" stroke-width="0.671338" stroke-linecap="round" stroke-linejoin="round"/>
<path d="M23.3252 184.039H31.6988" stroke="#FF6D66" stroke-width="0.671338" stroke-linecap="round" stroke-linejoin="round"/>
<path d="M489.989 83.1133H498.363" stroke="#FF6D66" stroke-width="0.671338" stroke-linecap="round" stroke-linejoin="round"/>
<path d="M265.328 25.5513H273.713" stroke="#FAD8B0" stroke-width="0.671338" stroke-miterlimit="10"/>
<path d="M505.984 126.634L514.223 128.118" stroke="#FAD8B0" stroke-width="0.671338" stroke-miterlimit="10"/>
<path d="M176.9 336.006H185.285" stroke="#A0C6F4" stroke-width="0.671338" stroke-linecap="round" stroke-linejoin="round"/>
<path d="M524.033 234.182C525.565 234.182 526.806 232.939 526.806 231.405C526.806 229.871 525.565 228.628 524.033 228.628C522.502 228.628 521.261 229.871 521.261 231.405C521.261 232.939 522.502 234.182 524.033 234.182Z" fill="#91BA83"/>
<path d="M2.77248 100.822C4.30368 100.822 5.54497 99.5782 5.54497 98.0442C5.54497 96.5109 4.30368 95.2676 2.77248 95.2676C1.24128 95.2676 0 96.5109 0 98.0442C0 99.5782 1.24128 100.822 2.77248 100.822Z" fill="#91BA83"/>
<defs>
<linearGradient id="paint0_linear_1000_1483" x1="100.865" y1="167.85" x2="153.974" y2="168.034" gradientUnits="userSpaceOnUse">
<stop stop-color="#AA367C"/>
<stop offset="1" stop-color="#4A2FBD"/>
</linearGradient>
<linearGradient id="paint1_linear_1000_1483" x1="73.7653" y1="202.723" x2="162.809" y2="202.929" gradientUnits="userSpaceOnUse">
<stop stop-color="#AA367C"/>
<stop offset="1" stop-color="#4A2FBD"/>
</linearGradient>
<linearGradient id="paint2_linear_1000_1483" x1="334.296" y1="221.704" x2="387.207" y2="221.854" gradientUnits="userSpaceOnUse">
<stop stop-color="#AA367C"/>
<stop offset="1" stop-color="#4A2FBD"/>
</linearGradient>
<linearGradient id="paint3_linear_1000_1483" x1="275.532" y1="270.018" x2="389.746" y2="270.562" gradientUnits="userSpaceOnUse">
<stop stop-color="#AA367C"/>
<stop offset="1" stop-color="#4A2FBD"/>
</linearGradient>
</defs>
</svg>
