<svg width="26" height="36" viewBox="0 0 26 36" fill="none" xmlns="http://www.w3.org/2000/svg">
<path d="M24.7813 0.78125H1.21876C0.978403 0.78125 0.747894 0.87673 0.577939 1.04668C0.407984 1.21664 0.312505 1.44715 0.312505 1.6875V34.3125C0.31189 34.4894 0.363046 34.6626 0.459666 34.8107C0.556286 34.9589 0.694148 35.0755 0.856256 35.1463C1.01844 35.216 1.19746 35.2369 1.37134 35.2063C1.54521 35.1757 1.70637 35.095 1.83501 34.9741L13 24.67L24.165 34.9741C24.3321 35.1305 24.5523 35.218 24.7813 35.2188C24.9056 35.2174 25.0285 35.1928 25.1438 35.1463C25.3059 35.0755 25.4437 34.9589 25.5403 34.8107C25.637 34.6626 25.6881 34.4894 25.6875 34.3125V1.6875C25.6875 1.44715 25.592 1.21664 25.4221 1.04668C25.2521 0.87673 25.0216 0.78125 24.7813 0.78125ZM23.875 32.2463L13.6163 22.7759C13.4487 22.6205 13.2286 22.5342 13 22.5342C12.7715 22.5342 12.5513 22.6205 12.3838 22.7759L2.12501 32.2463V2.59375H23.875V32.2463Z" fill="#F7FC04"/>
</svg>
