<svg width="50" height="50" viewBox="0 0 50 50" fill="none" xmlns="http://www.w3.org/2000/svg">
<path d="M25 0C21.717 0 18.4661 0.662698 15.4329 1.95026C12.3998 3.23782 9.6438 5.12502 7.32233 7.50412C2.63392 12.3089 0 18.8256 0 25.6207C0 36.945 7.175 46.5528 17.1 49.9603C18.35 50.1653 18.75 49.371 18.75 48.6793V44.3494C11.825 45.8866 10.35 40.9162 10.35 40.9162C9.2 37.9442 7.575 37.15 7.575 37.15C5.3 35.5615 7.75 35.6127 7.75 35.6127C10.25 35.7921 11.575 38.2517 11.575 38.2517C13.75 42.146 17.425 40.9931 18.85 40.3782C19.075 38.7128 19.725 37.5855 20.425 36.945C14.875 36.3045 9.05 34.1011 9.05 24.3396C9.05 21.4957 10 19.2155 11.625 17.3964C11.375 16.7559 10.5 14.0914 11.875 10.6326C11.875 10.6326 13.975 9.94082 18.75 13.2459C20.725 12.6822 22.875 12.4004 25 12.4004C27.125 12.4004 29.275 12.6822 31.25 13.2459C36.025 9.94082 38.125 10.6326 38.125 10.6326C39.5 14.0914 38.625 16.7559 38.375 17.3964C40 19.2155 40.95 21.4957 40.95 24.3396C40.95 34.1267 35.1 36.2789 29.525 36.9194C30.425 37.7136 31.25 39.2765 31.25 41.6592V48.6793C31.25 49.371 31.65 50.1909 32.925 49.9603C42.85 46.5271 50 36.945 50 25.6207C50 22.2561 49.3534 18.9245 48.097 15.8161C46.8406 12.7076 44.9991 9.88322 42.6777 7.50412C40.3562 5.12502 37.6002 3.23782 34.5671 1.95026C31.5339 0.662698 28.283 0 25 0V0Z" fill="white"/>
</svg>
