<svg width="612" height="612" viewBox="0 0 612 612" fill="none" xmlns="http://www.w3.org/2000/svg">
<path d="M61.2 122.4H550.8C584.582 122.4 612 95.013 612 61.2C612 27.387 584.613 0 550.8 0H61.2C27.387 0 0 27.387 0 61.2C0 95.013 27.387 122.4 61.2 122.4ZM550.8 244.8H61.2C27.387 244.8 0 272.187 0 306C0 339.812 27.387 367.2 61.2 367.2H550.8C584.582 367.2 612 339.812 612 306C612 272.187 584.613 244.8 550.8 244.8ZM550.8 489.6H61.2C27.387 489.6 0 516.987 0 550.8C0 584.613 27.387 612 61.2 612H550.8C584.582 612 612 584.613 612 550.8C612 516.987 584.613 489.6 550.8 489.6Z" fill="white"/>
</svg>
