<svg width="50" height="50" viewBox="0 0 50 50" fill="none" xmlns="http://www.w3.org/2000/svg">
<path d="M35.9 30C36.1 28.35 36.25 26.7 36.25 25C36.25 23.3 36.1 21.65 35.9 20H44.35C44.75 21.6 45 23.275 45 25C45 26.725 44.75 28.4 44.35 30M31.475 43.9C32.975 41.125 34.125 38.125 34.925 35H42.3C39.8779 39.1707 36.0353 42.33 31.475 43.9M30.85 30H19.15C18.9 28.35 18.75 26.7 18.75 25C18.75 23.3 18.9 21.625 19.15 20H30.85C31.075 21.625 31.25 23.3 31.25 25C31.25 26.7 31.075 28.35 30.85 30ZM25 44.9C22.925 41.9 21.25 38.575 20.225 35H29.775C28.75 38.575 27.075 41.9 25 44.9ZM15 15H7.7C10.0971 10.818 13.937 7.65372 18.5 6.1C17 8.875 15.875 11.875 15 15ZM7.7 35H15C15.875 38.125 17 41.125 18.5 43.9C13.9466 42.3292 10.1121 39.1693 7.7 35M5.65 30C5.25 28.4 5 26.725 5 25C5 23.275 5.25 21.6 5.65 20H14.1C13.9 21.65 13.75 23.3 13.75 25C13.75 26.7 13.9 28.35 14.1 30M25 5.075C27.075 8.075 28.75 11.425 29.775 15H20.225C21.25 11.425 22.925 8.075 25 5.075M42.3 15H34.925C34.1426 11.9036 32.9839 8.91474 31.475 6.1C36.075 7.675 39.9 10.85 42.3 15ZM25 0C11.175 0 0 11.25 0 25C0 31.6304 2.63392 37.9893 7.32233 42.6777C9.6438 44.9991 12.3998 46.8406 15.4329 48.097C18.4661 49.3534 21.717 50 25 50C31.6304 50 37.9893 47.3661 42.6777 42.6777C47.3661 37.9893 50 31.6304 50 25C50 21.717 49.3534 18.4661 48.097 15.4329C46.8406 12.3998 44.9991 9.6438 42.6777 7.32233C40.3562 5.00087 37.6002 3.15938 34.5671 1.90301C31.5339 0.646644 28.283 0 25 0V0Z" fill="white"/>
</svg>
