<svg width="67" height="66" viewBox="0 0 67 66" fill="none" xmlns="http://www.w3.org/2000/svg">
<path d="M12.9687 55.8467L8.38184 4.37988H58.801L54.208 55.8386L33.5608 61.563L12.9687 55.8467Z" fill="#6218FF"/>
<path d="M33.5918 57.1884L50.277 52.5627L54.2022 8.58887H33.5918V57.1884Z" fill="#B68CDF"/>
<path d="M33.5918 27.2353H41.9446L42.5205 20.7716H33.5918V14.459H33.6143H49.4193L49.2681 16.152L47.7181 33.5479H33.5918V27.2353Z" fill="white"/>
<path d="M33.6306 43.6284L33.602 43.6366L26.5725 41.7373L26.1232 36.7031H22.7066H19.7861L20.6704 46.6142L33.5999 50.2045L33.6306 50.1963V43.6284Z" fill="#EBEBEB"/>
<path d="M41.4068 33.2803L40.6471 41.7332L33.6074 43.6325V50.2003L46.5471 46.6142L46.6431 45.5481L47.7398 33.2803H41.4068Z" fill="white"/>
<path d="M33.614 14.459V18.3801V20.7553V20.7716H18.3869H18.3665L18.2399 19.3522L17.9519 16.152L17.8008 14.459H33.614Z" fill="#EBEBEB"/>
<path d="M33.5922 27.2354V31.1565V33.5316V33.548H26.671H26.6506L26.524 32.1286L26.238 28.9284L26.0869 27.2354H33.5922Z" fill="#EBEBEB"/>
</svg>
