<svg width="66" height="66" viewBox="0 0 66 66" fill="none" xmlns="http://www.w3.org/2000/svg">
<path d="M62.4358 29.7107L35.6873 2.96209C35.3214 2.59493 34.8866 2.3036 34.4079 2.10482C33.9291 1.90604 33.4159 1.80371 32.8975 1.80371C32.3792 1.80371 31.8659 1.90604 31.3872 2.10482C30.9085 2.3036 30.4737 2.59493 30.1078 2.96209L24.5524 8.51748L31.5978 15.5629C32.4287 15.2802 33.3222 15.2365 34.1766 15.4369C35.031 15.6372 35.812 16.0736 36.4305 16.6962C37.049 17.3188 37.4801 18.1026 37.6749 18.9584C37.8696 19.8141 37.82 20.7073 37.5318 21.5362L44.3146 28.3191C45.3285 27.9708 46.4311 27.9804 47.4388 28.3464C48.4464 28.7124 49.2982 29.4126 49.8522 30.3303C50.4063 31.2481 50.6291 32.328 50.4836 33.3901C50.3381 34.4522 49.833 35.4324 49.0525 36.1673C48.272 36.9023 47.2633 37.3476 46.1944 37.429C45.1254 37.5105 44.0608 37.2232 43.178 36.615C42.2952 36.0068 41.6474 35.1145 41.3426 34.0867C41.0378 33.0589 41.0944 31.9577 41.503 30.9666L35.1687 24.6323V41.2984C36.1282 41.7739 36.8959 42.5637 37.3439 43.5363C37.7919 44.509 37.8931 45.6058 37.6307 46.644C37.3683 47.6822 36.7581 48.5992 35.9017 49.2421C35.0454 49.8851 33.9946 50.2153 32.9244 50.1777C31.8542 50.1401 30.8292 49.7369 30.0201 49.0354C29.211 48.3339 28.6667 47.3764 28.4778 46.3223C28.289 45.2682 28.4669 44.1812 28.9821 43.2424C29.4972 42.3036 30.3185 41.5697 31.309 41.1628V24.3435C30.736 24.1083 30.2151 23.7622 29.7764 23.3249C29.3377 22.8876 28.9899 22.3678 28.7529 21.7955C28.516 21.2232 28.3946 20.6096 28.3958 19.9902C28.3971 19.3708 28.5208 18.7577 28.76 18.1864L21.8239 11.2459L3.48175 29.5947C3.11425 29.9606 2.82264 30.3956 2.62367 30.8745C2.42469 31.3534 2.32227 31.8669 2.32227 32.3855C2.32227 32.9041 2.42469 33.4177 2.62367 33.8966C2.82264 34.3755 3.11425 34.8104 3.48175 35.1764L30.2303 61.9162C30.5962 62.2834 31.031 62.5747 31.5097 62.7735C31.9884 62.9722 32.5017 63.0746 33.0201 63.0746C33.5384 63.0746 34.0517 62.9722 34.5304 62.7735C35.0091 62.5747 35.4439 62.2834 35.8098 61.9162L62.4358 35.2836C62.8033 34.9176 63.0949 34.4827 63.2939 34.0038C63.4929 33.5249 63.5953 33.0114 63.5953 32.4927C63.5953 31.9741 63.4929 31.4606 63.2939 30.9817C63.0949 30.5028 62.8033 30.0679 62.4358 29.7019" fill="#6218FF"/>
<path d="M24.5517 8.51758L31.5971 15.563C32.428 15.2803 33.3215 15.2366 34.1759 15.437C35.0303 15.6373 35.8113 16.0737 36.4298 16.6963C37.0483 17.3189 37.4794 18.1027 37.6742 18.9585C37.8689 19.8142 37.8193 20.7074 37.5311 21.5363L44.3139 28.3192C45.3278 27.9709 46.4304 27.9805 47.4381 28.3465C48.4457 28.7125 49.2975 29.4127 49.8515 30.3304C50.4056 31.2482 50.6284 32.3281 50.4829 33.3902C50.3374 34.4523 49.8323 35.4325 49.0518 36.1674C48.2713 36.9024 47.2626 37.3477 46.1937 37.4291C45.1247 37.5106 44.0601 37.2233 43.1773 36.6151C42.2945 36.0069 41.6467 35.1146 41.3419 34.0868C41.0371 33.059 41.0937 31.9578 41.5023 30.9667L35.168 24.6324V41.2985C36.1275 41.774 36.8952 42.5638 37.3432 43.5364C37.7912 44.5091 37.8924 45.6059 37.63 46.6441C37.3676 47.6823 36.7574 48.5993 35.901 49.2422C35.0447 49.8852 33.9939 50.2154 32.9237 50.1778C31.8535 50.1402 30.8285 49.737 30.0194 49.0355C29.2103 48.334 28.666 47.3765 28.4771 46.3224C28.2882 45.2683 28.4662 44.1813 28.9814 43.2425C29.4965 42.3037 30.3178 41.5698 31.3083 41.1629V24.3435C30.7353 24.1084 30.2144 23.7623 29.7757 23.325C29.337 22.8877 28.9892 22.3679 28.7522 21.7956C28.5153 21.2233 28.3939 20.6097 28.3951 19.9903C28.3964 19.3709 28.5201 18.7578 28.7593 18.1865L21.8232 11.246" fill="white"/>
</svg>
