<svg width="66" height="66" viewBox="0 0 66 66" fill="none" xmlns="http://www.w3.org/2000/svg">
<path d="M12.1807 55.8467L7.5918 4.37988H58.015L53.42 55.8386L32.7728 61.563L12.1807 55.8467Z" fill="#6218FF"/>
<path d="M32.8027 57.1884L49.4879 52.5627L53.4132 8.58887H32.8027V57.1884Z" fill="#B68CDF"/>
<path d="M32.8031 27.6767H24.4502L23.8743 21.213H32.8031V14.9004H32.7806H16.9756L17.1267 16.5955L18.6768 33.9893H32.8031V27.6767Z" fill="#EBEBEB"/>
<path d="M32.8034 44.0697L32.7748 44.0779L25.7454 42.1806L25.2961 37.1465H21.8794H18.959L19.8433 47.0555L32.7748 50.6458L32.8034 50.6376V44.0697Z" fill="#EBEBEB"/>
<path d="M32.7803 27.6758V33.9884H40.5531L39.822 42.1758L32.7803 44.0751V50.643L45.722 47.0547L45.816 45.9887L47.2987 29.3709L47.4539 27.6758H45.7527H32.7803Z" fill="white"/>
<path d="M32.7803 14.9004V18.8215V21.1987V21.213H48.0073H48.0277L48.1544 19.7957L48.4423 16.5955L48.5934 14.9004H32.7803Z" fill="white"/>
</svg>
