<svg width="67" height="66" viewBox="0 0 67 66" fill="none" xmlns="http://www.w3.org/2000/svg">
<path d="M61.9712 4.37988H4.78809V61.563H61.9712V4.37988Z" fill="#6218FF"/>
<path d="M43.201 49.0547C43.6882 50.0443 44.4452 50.8762 45.3847 51.4543C46.3241 52.0324 47.4078 52.3333 48.5109 52.3223C50.7369 52.3223 52.1604 51.2092 52.1604 49.6673C52.1604 47.8293 50.6981 47.1717 48.2474 46.0995L46.9036 45.5236C43.0233 43.8714 40.4501 41.8026 40.4501 37.4281C40.4501 33.3987 43.5135 30.3292 48.3189 30.3292C49.8745 30.2169 51.4287 30.565 52.7877 31.3303C54.1468 32.0955 55.2504 33.2439 55.961 34.6323L51.7601 37.3178C51.4865 36.6294 51.01 36.0405 50.394 35.629C49.778 35.2176 49.0514 35.0032 48.3107 35.0142C47.9876 34.9818 47.6612 35.0171 47.3524 35.1179C47.0437 35.2186 46.7593 35.3826 46.5174 35.5993C46.2755 35.816 46.0814 36.0808 45.9475 36.3766C45.8136 36.6725 45.7427 36.9931 45.7395 37.3178C45.7395 38.9292 46.7382 39.5827 49.0439 40.5854L50.3877 41.1613C54.9542 43.1199 57.5356 45.1151 57.5356 49.602C57.5356 54.4401 53.735 57.0909 48.6314 57.0909C46.6428 57.2176 44.6601 56.7661 42.9225 55.791C41.1848 54.8158 39.7666 53.3586 38.8388 51.5952L43.201 49.0547ZM24.2183 49.5203C25.0617 51.0173 25.8296 52.2835 27.6758 52.2835C29.4403 52.2835 30.5554 51.5932 30.5554 48.9076V30.6356H35.9285V48.9791C35.9285 54.5422 32.6609 57.0746 27.9045 57.0746C26.2232 57.1665 24.5535 56.7475 23.1148 55.8727C21.6761 54.9979 20.5358 53.7082 19.8438 52.1732L24.2183 49.5203Z" fill="white"/>
</svg>
