<svg width="67" height="66" viewBox="0 0 67 66" fill="none" xmlns="http://www.w3.org/2000/svg">
<path d="M56.1775 32.5353C56.1775 31.1238 55.6167 29.7701 54.6186 28.772C53.6206 27.7739 52.2669 27.2132 50.8553 27.2132C50.6684 27.213 50.4817 27.2225 50.2958 27.2418L57.607 5.67969H26.5382L33.8393 27.2234C33.7331 27.2234 33.6249 27.2132 33.5166 27.2132C32.2457 27.2117 31.0162 27.6651 30.0505 28.4914C29.0848 29.3176 28.4467 30.4622 28.2515 31.718C28.0564 32.9739 28.3171 34.2581 28.9865 35.3385C29.6559 36.4188 30.6898 37.224 31.9012 37.6083C30.7691 39.5575 29.3595 41.3317 27.7166 42.8752C25.5781 44.9196 23.0374 46.4963 20.2563 47.505C18.6981 46.7665 17.4794 45.4626 16.8478 43.8581C16.2162 42.2535 16.2191 40.4688 16.8559 38.8663C17.0132 38.4987 17.1725 38.127 17.3236 37.7553C18.5103 37.4758 19.5651 36.7976 20.3118 35.8339C21.0584 34.8702 21.4518 33.6795 21.4261 32.4606C21.4004 31.2418 20.9571 30.0687 20.1705 29.1373C19.3838 28.206 18.3013 27.5728 17.1039 27.3437C15.9065 27.1145 14.6668 27.3032 13.5918 27.8783C12.5168 28.4533 11.6718 29.3798 11.1978 30.5031C10.7238 31.6263 10.6497 32.8781 10.9878 34.0494C11.3259 35.2207 12.0557 36.2405 13.0553 36.9384C11.3565 40.0187 10.0599 43.3043 9.19748 46.7147C8.47452 51.0749 9.19748 55.7006 12.9654 58.3167C21.7471 64.4047 31.2824 54.5426 41.3344 52.0654C44.9777 51.1668 48.9765 51.3118 52.1849 49.4533C53.344 48.7932 54.3436 47.8859 55.1127 46.796C55.8817 45.7061 56.4015 44.4602 56.6349 43.1468C56.8484 41.8954 56.8082 40.6138 56.5166 39.3781C56.2251 38.1425 55.6882 36.9781 54.9378 35.954C55.7384 34.9972 56.1766 33.789 56.1754 32.5414L56.1775 32.5353ZM38.8408 32.5639V32.5455C38.8423 31.6296 38.6069 30.7289 38.1574 29.9309C37.708 29.1329 37.0597 28.4647 36.2757 27.9913L42.0839 16.2259L47.9043 28.0995C47.1741 28.5848 46.5754 29.2432 46.1617 30.0162C45.748 30.7891 45.532 31.6525 45.5332 32.5292C45.5332 32.568 45.5332 32.6068 45.5332 32.6456L38.8408 32.5639Z" fill="#6218FF"/>
<path d="M57.4782 32.5344C57.4761 30.9912 56.936 29.4971 55.9507 28.3094C54.9654 27.1217 53.5968 26.3148 52.0805 26.0278L59.4204 4.37988H24.7266L32.0787 26.0706C30.7952 26.3575 29.6262 27.0203 28.721 27.9744C27.8158 28.9284 27.2153 30.1306 26.9961 31.4274C26.777 32.7242 26.9492 34.0569 27.4907 35.2554C28.0322 36.454 28.9185 37.464 30.0365 38.1567C29.1129 39.5288 28.0388 40.7933 26.8342 41.9267C24.9696 43.7107 22.7784 45.1183 20.3807 46.0725C19.2555 45.4193 18.4025 44.3834 17.9774 43.1537C17.5522 41.9241 17.5833 40.5826 18.0648 39.3739L18.1465 39.1839L18.2976 38.8265C19.6587 38.3546 20.829 37.4521 21.6312 36.2555C22.4335 35.0589 22.8239 33.6335 22.7435 32.1951C22.6631 30.7568 22.1162 29.3838 21.1856 28.2841C20.2549 27.1844 18.9913 26.4179 17.5861 26.1006C16.1808 25.7834 14.7105 25.9327 13.3977 26.526C12.0849 27.1192 11.0012 28.1241 10.3106 29.3884C9.62006 30.6527 9.3603 32.1077 9.57067 33.5328C9.78104 34.958 10.4501 36.2758 11.4765 37.2867C11.2559 37.7585 11.0231 38.2363 10.7842 38.7285C9.46002 41.1631 8.49689 43.7773 7.925 46.4891C6.97535 52.2074 8.50704 56.7882 12.2362 59.3716C14.2381 60.8032 16.6391 61.5697 19.1002 61.5629C23.4543 61.5629 27.8594 59.3757 32.1706 57.2354C35.1828 55.5972 38.3607 54.2842 41.6508 53.3184C42.8291 53.0284 44.0422 52.8527 45.3268 52.6669C47.9438 52.4578 50.4958 51.7449 52.8423 50.5675C54.1656 49.8116 55.3065 48.774 56.1842 47.5282C57.0619 46.2824 57.655 44.8588 57.9214 43.3583C58.3553 40.8091 57.8542 38.1889 56.5102 35.9796C57.1459 34.9423 57.4817 33.749 57.4802 32.5323L57.4782 32.5344ZM54.8784 32.5344C54.8784 33.3301 54.6425 34.1079 54.2004 34.7696C53.7583 35.4312 53.13 35.9468 52.3948 36.2514C51.6597 36.5559 50.8507 36.6355 50.0703 36.4803C49.2899 36.3251 48.573 35.9419 48.0103 35.3792C47.4477 34.8166 47.0645 34.0997 46.9093 33.3193C46.754 32.5388 46.8337 31.7299 47.1382 30.9947C47.4427 30.2596 47.9584 29.6312 48.62 29.1892C49.2816 28.7471 50.0595 28.5111 50.8552 28.5111C51.9219 28.5122 52.9446 28.9364 53.6988 29.6907C54.4531 30.445 54.8773 31.4677 54.8784 32.5344V32.5344ZM55.7913 6.97967L49.3092 26.0951C49.0316 26.1623 48.7587 26.2476 48.4923 26.3504L42.0898 13.28L35.667 26.2728C35.3873 26.1759 35.1014 26.0981 34.8113 26.04L28.3516 6.97967H55.7913ZM33.5165 28.5111C34.3122 28.5111 35.09 28.7471 35.7517 29.1892C36.4133 29.6312 36.9289 30.2596 37.2334 30.9947C37.538 31.7299 37.6176 32.5388 37.4624 33.3193C37.3072 34.0997 36.924 34.8166 36.3613 35.3792C35.7987 35.9419 35.0818 36.3251 34.3014 36.4803C33.5209 36.6355 32.712 36.5559 31.9768 36.2514C31.2417 35.9468 30.6133 35.4312 30.1713 34.7696C29.7292 34.1079 29.4932 33.3301 29.4932 32.5344C29.4943 31.4677 29.9185 30.445 30.6728 29.6907C31.4271 28.9364 32.4498 28.5122 33.5165 28.5111V28.5111ZM16.1124 28.5499C16.9085 28.5503 17.6865 28.7869 18.3481 29.2297C19.0096 29.6725 19.525 30.3015 19.8289 31.0373C20.1328 31.7731 20.2116 32.5825 20.0553 33.3631C19.899 34.1437 19.5146 34.8603 18.9508 35.4224C18.3871 35.9844 17.6693 36.3666 16.8882 36.5205C16.1072 36.6744 15.298 36.5932 14.5632 36.287C13.8283 35.9809 13.2008 35.4636 12.76 34.8007C12.3193 34.1378 12.0851 33.359 12.0871 32.563C12.0882 31.4963 12.5124 30.4736 13.2667 29.7193C14.0209 28.965 15.0436 28.5408 16.1103 28.5397L16.1124 28.5499ZM55.3583 42.9151C55.1565 44.0409 54.7096 45.1085 54.0493 46.0423C53.3889 46.9761 52.5314 47.7534 51.5373 48.3189C49.4748 49.3204 47.2415 49.9225 44.9551 50.0937C43.6644 50.2795 42.3308 50.4715 41.0258 50.7941C37.5518 51.8001 34.1967 53.1785 31.0188 54.9052C24.5571 58.1136 18.9695 60.8849 13.7168 57.2395C9.86309 54.5682 10.0408 49.626 10.4901 46.918C11.0188 44.4535 11.9006 42.0784 13.1082 39.8661C13.2961 39.4801 13.4799 39.1002 13.6596 38.7244C14.2082 38.9437 14.7839 39.088 15.371 39.1533C14.8513 40.9892 14.9965 42.9497 15.7811 44.689C16.5658 46.4283 17.9394 47.8347 19.6598 48.66L20.1601 48.9173L20.6891 48.7294C23.6395 47.6645 26.335 45.995 28.6028 43.828C30.1008 42.4188 31.4167 40.8278 32.5198 39.092C33.9313 39.3067 35.3743 39.0593 36.6336 38.3866C37.8929 37.714 38.901 36.6522 39.5074 35.3597C40.1138 34.0672 40.286 32.6133 39.9984 31.2149C39.7107 29.8165 38.9787 28.5485 37.9114 27.6003L42.0735 19.1842L46.2785 27.7616C45.0821 28.9147 44.3633 30.4756 44.2649 32.1343C44.1665 33.793 44.6958 35.428 45.7475 36.7143C46.7992 38.0007 48.2965 38.8443 49.9416 39.0775C51.5868 39.3107 53.2594 38.9163 54.6272 37.9729C55.3856 39.5036 55.6394 41.2353 55.3522 42.9192L55.3583 42.9151Z" fill="white"/>
</svg>
