<svg width="67" height="66" viewBox="0 0 67 66" fill="none" xmlns="http://www.w3.org/2000/svg">
<g clip-path="url(#clip0_1150_299)">
<mask id="path-1-outside-1_1150_299" maskUnits="userSpaceOnUse" x="0.214844" y="16.834" width="66" height="32" fill="black">
<rect fill="white" x="0.214844" y="16.834" width="66" height="32"/>
<path fill-rule="evenodd" clip-rule="evenodd" d="M63.1467 30.2609C62.8404 29.5977 62.6923 28.8129 62.6606 28.0741C62.582 26.256 62.6489 24.4313 62.5667 22.6131C62.4932 20.985 61.9121 19.5176 60.3488 18.6782C58.9723 17.9394 57.3768 17.8659 55.8451 17.8486V20.7542C56.3557 20.7715 56.2301 20.7874 56.3547 20.794C58.4117 20.8951 59.101 21.5476 59.127 23.5883C59.1464 25.1057 59.1332 26.6241 59.1577 28.141C59.1878 29.9816 59.4625 31.7384 61.1458 32.9005C61.1744 32.9204 61.1718 32.9934 61.1882 33.0782C60.3314 33.6868 59.6534 34.4705 59.4563 35.5401C59.2976 36.4055 59.2077 37.2913 59.1806 38.171C59.1316 39.763 59.1822 41.3585 59.1367 42.9504C59.101 44.1972 58.5103 44.7823 57.2967 45.0601C56.8397 45.1652 56.3557 45.2025 55.8451 45.2674V48.1658C56.8663 48.1046 57.3855 48.0642 58.085 47.9887C60.7174 47.7038 62.1996 46.3339 62.5034 43.7801C62.5983 42.9795 62.5876 42.1636 62.6055 41.3549C62.6392 39.839 62.6218 38.316 62.7576 36.8094C62.896 35.2721 64.0141 34.4225 65.5458 34.5072V31.4689C64.5247 31.6516 63.5837 31.21 63.1467 30.2609V30.2609ZM15.1604 36.4555C15.1599 30.559 15.0001 24.6625 15.0001 18.7666V17.8389C13.4684 17.8389 11.8213 17.8241 10.2054 17.846C9.54928 17.8547 8.97081 17.9109 8.32035 17.9997C5.83034 18.3387 4.63 19.5074 4.18888 21.9882C4.06123 22.704 4.08676 23.4479 4.07604 24.1801C4.05613 25.5719 4.09595 26.9642 4.07349 28.3555C4.04541 30.1077 3.21983 31.4658 1.43285 31.5689C1.36954 31.5725 1.72541 31.6455 1.21484 31.6894V34.398C3.2571 34.7186 3.90704 35.5432 4.04285 37.4404C4.0643 37.7427 4.06991 38.0475 4.07298 38.3513C4.09034 40.0463 4.07094 41.744 4.14752 43.436C4.21951 45.0151 4.57027 46.4263 6.06264 47.255C7.45648 48.029 9.38386 48.0918 10.405 48.1321V45.2403C10.405 45.2158 10.2978 45.1933 10.1982 45.1872C7.98287 45.0519 7.48354 44.4505 7.47027 42.2336C7.46159 40.7657 7.52439 39.2978 7.5009 37.83C7.47129 35.9858 7.20171 34.2366 5.53217 33.0695C5.50664 33.0516 5.53166 32.9761 5.52349 32.8739C6.64622 32.1643 7.24307 31.0788 7.40542 29.7626C7.49528 29.0365 7.52541 28.3003 7.53817 27.5677C7.5637 26.0497 7.53664 24.5303 7.578 23.0134C7.6071 21.9474 8.28768 21.1703 9.15615 20.9957C9.97918 20.8297 10.405 20.8349 11.9367 20.7578V21.8075C11.9367 27.0714 11.7493 32.3348 11.7769 37.5987C11.7866 39.4015 11.9862 41.1788 13.9187 41.9574C14.9694 42.3806 16.0952 42.5108 17.3022 42.7957C17.5039 41.6153 17.5697 40.636 17.7346 39.667C15.5101 39.0288 15.1604 38.6979 15.1604 36.4555V36.4555ZM28.7791 26.2989C25.0316 24.5068 20.4835 26.0737 18.7384 29.8325C17.4242 32.6631 17.4712 35.5764 18.6281 38.4467C19.2556 40.0029 20.3896 41.168 21.933 41.8532C24.9474 43.1914 27.998 42.8662 31.0374 41.9267C31.2013 41.8757 31.4106 41.5602 31.3907 41.3927C31.287 40.5446 31.115 39.7048 30.9613 38.8292C30.2378 39.0114 29.6333 39.1978 29.0155 39.3137C27.3833 39.6205 25.7474 39.62 24.1591 38.9884C22.5906 38.3656 21.5373 36.5735 21.7992 35.0418H32.4557C32.5859 33.5101 32.5343 31.404 31.8823 29.6625C31.3003 28.1058 30.2955 27.0244 28.7791 26.2989V26.2989ZM28.7567 32.4895H21.7538C21.7574 30.4472 23.4203 28.6143 25.6019 28.6562C27.518 28.6929 28.8435 30.4472 28.7567 32.4895ZM57.4034 38.7587C57.6546 36.1783 56.8754 34.7263 54.5779 33.6051C53.763 33.2073 52.8982 32.9127 52.068 32.5441C51.4466 32.2684 50.8212 31.9891 50.2402 31.6399C49.6745 31.3004 49.4376 30.7367 49.5213 30.0766C49.6035 29.4246 50.0227 28.9947 50.6282 28.8721C51.3619 28.7231 52.1308 28.5954 52.8685 28.6557C53.9111 28.7409 54.9394 29.008 56.0151 29.2045L56.6952 26.2341C55.2396 26.0125 53.8825 25.7261 52.5111 25.6178C50.9861 25.4978 49.5009 25.7511 48.105 26.4705C45.1555 27.9904 45.1013 32.6564 47.8119 34.1881C48.6217 34.6456 49.4881 35.003 50.3305 35.4033C51.2174 35.8255 52.1364 36.1926 52.985 36.6817C53.6293 37.0529 53.8595 37.7008 53.687 38.4559C53.5272 39.158 52.9957 39.4709 52.3713 39.5307C51.4216 39.621 50.4474 39.7078 49.5075 39.596C48.3756 39.4612 47.2677 39.1176 46.1082 38.8552L45.5169 41.8114C48.2398 42.8335 50.934 43.001 53.6543 42.398C55.9309 41.8936 57.2277 40.562 57.4034 38.7587V38.7587ZM42.8957 33.9328C41.8955 33.4024 40.8198 33.0154 39.7874 32.5426C39.1466 32.249 38.4681 31.9942 37.9034 31.5873C36.8174 30.8046 37.0196 29.3041 38.2843 28.9028C39.0098 28.672 39.8303 28.6005 40.5926 28.6577C41.631 28.7358 42.6557 29.0044 43.7386 29.2004L44.3809 26.3689C43.8311 26.2193 43.3333 26.0564 42.8232 25.9492C40.7958 25.5223 38.7576 25.3569 36.7608 26.0589C35.0453 26.6624 33.8552 27.7908 33.6198 29.689C33.3563 31.8089 34.0594 33.4825 36.0174 34.4894C36.8011 34.8927 37.641 35.1853 38.441 35.559C39.2396 35.9317 40.0549 36.2876 40.7968 36.7552C41.364 37.1126 41.5876 37.7177 41.4278 38.4171C41.2691 39.1105 40.7636 39.4597 40.1346 39.5245C39.1849 39.6221 38.2103 39.7124 37.2698 39.6027C36.1333 39.4699 35.0218 39.1253 33.8419 38.8598C33.6678 39.6833 33.4636 40.513 33.3364 41.3539C33.3089 41.5367 33.5126 41.8879 33.6841 41.9477C36.433 42.9004 39.2309 43.0372 42.0267 42.2137C43.6963 41.7225 44.8639 40.6559 45.0993 38.8322C45.3663 36.7619 44.8726 34.9805 42.8957 33.9328V33.9328Z"/>
</mask>
<path fill-rule="evenodd" clip-rule="evenodd" d="M63.1467 30.2609C62.8404 29.5977 62.6923 28.8129 62.6606 28.0741C62.582 26.256 62.6489 24.4313 62.5667 22.6131C62.4932 20.985 61.9121 19.5176 60.3488 18.6782C58.9723 17.9394 57.3768 17.8659 55.8451 17.8486V20.7542C56.3557 20.7715 56.2301 20.7874 56.3547 20.794C58.4117 20.8951 59.101 21.5476 59.127 23.5883C59.1464 25.1057 59.1332 26.6241 59.1577 28.141C59.1878 29.9816 59.4625 31.7384 61.1458 32.9005C61.1744 32.9204 61.1718 32.9934 61.1882 33.0782C60.3314 33.6868 59.6534 34.4705 59.4563 35.5401C59.2976 36.4055 59.2077 37.2913 59.1806 38.171C59.1316 39.763 59.1822 41.3585 59.1367 42.9504C59.101 44.1972 58.5103 44.7823 57.2967 45.0601C56.8397 45.1652 56.3557 45.2025 55.8451 45.2674V48.1658C56.8663 48.1046 57.3855 48.0642 58.085 47.9887C60.7174 47.7038 62.1996 46.3339 62.5034 43.7801C62.5983 42.9795 62.5876 42.1636 62.6055 41.3549C62.6392 39.839 62.6218 38.316 62.7576 36.8094C62.896 35.2721 64.0141 34.4225 65.5458 34.5072V31.4689C64.5247 31.6516 63.5837 31.21 63.1467 30.2609V30.2609ZM15.1604 36.4555C15.1599 30.559 15.0001 24.6625 15.0001 18.7666V17.8389C13.4684 17.8389 11.8213 17.8241 10.2054 17.846C9.54928 17.8547 8.97081 17.9109 8.32035 17.9997C5.83034 18.3387 4.63 19.5074 4.18888 21.9882C4.06123 22.704 4.08676 23.4479 4.07604 24.1801C4.05613 25.5719 4.09595 26.9642 4.07349 28.3555C4.04541 30.1077 3.21983 31.4658 1.43285 31.5689C1.36954 31.5725 1.72541 31.6455 1.21484 31.6894V34.398C3.2571 34.7186 3.90704 35.5432 4.04285 37.4404C4.0643 37.7427 4.06991 38.0475 4.07298 38.3513C4.09034 40.0463 4.07094 41.744 4.14752 43.436C4.21951 45.0151 4.57027 46.4263 6.06264 47.255C7.45648 48.029 9.38386 48.0918 10.405 48.1321V45.2403C10.405 45.2158 10.2978 45.1933 10.1982 45.1872C7.98287 45.0519 7.48354 44.4505 7.47027 42.2336C7.46159 40.7657 7.52439 39.2978 7.5009 37.83C7.47129 35.9858 7.20171 34.2366 5.53217 33.0695C5.50664 33.0516 5.53166 32.9761 5.52349 32.8739C6.64622 32.1643 7.24307 31.0788 7.40542 29.7626C7.49528 29.0365 7.52541 28.3003 7.53817 27.5677C7.5637 26.0497 7.53664 24.5303 7.578 23.0134C7.6071 21.9474 8.28768 21.1703 9.15615 20.9957C9.97918 20.8297 10.405 20.8349 11.9367 20.7578V21.8075C11.9367 27.0714 11.7493 32.3348 11.7769 37.5987C11.7866 39.4015 11.9862 41.1788 13.9187 41.9574C14.9694 42.3806 16.0952 42.5108 17.3022 42.7957C17.5039 41.6153 17.5697 40.636 17.7346 39.667C15.5101 39.0288 15.1604 38.6979 15.1604 36.4555V36.4555ZM28.7791 26.2989C25.0316 24.5068 20.4835 26.0737 18.7384 29.8325C17.4242 32.6631 17.4712 35.5764 18.6281 38.4467C19.2556 40.0029 20.3896 41.168 21.933 41.8532C24.9474 43.1914 27.998 42.8662 31.0374 41.9267C31.2013 41.8757 31.4106 41.5602 31.3907 41.3927C31.287 40.5446 31.115 39.7048 30.9613 38.8292C30.2378 39.0114 29.6333 39.1978 29.0155 39.3137C27.3833 39.6205 25.7474 39.62 24.1591 38.9884C22.5906 38.3656 21.5373 36.5735 21.7992 35.0418H32.4557C32.5859 33.5101 32.5343 31.404 31.8823 29.6625C31.3003 28.1058 30.2955 27.0244 28.7791 26.2989V26.2989ZM28.7567 32.4895H21.7538C21.7574 30.4472 23.4203 28.6143 25.6019 28.6562C27.518 28.6929 28.8435 30.4472 28.7567 32.4895ZM57.4034 38.7587C57.6546 36.1783 56.8754 34.7263 54.5779 33.6051C53.763 33.2073 52.8982 32.9127 52.068 32.5441C51.4466 32.2684 50.8212 31.9891 50.2402 31.6399C49.6745 31.3004 49.4376 30.7367 49.5213 30.0766C49.6035 29.4246 50.0227 28.9947 50.6282 28.8721C51.3619 28.7231 52.1308 28.5954 52.8685 28.6557C53.9111 28.7409 54.9394 29.008 56.0151 29.2045L56.6952 26.2341C55.2396 26.0125 53.8825 25.7261 52.5111 25.6178C50.9861 25.4978 49.5009 25.7511 48.105 26.4705C45.1555 27.9904 45.1013 32.6564 47.8119 34.1881C48.6217 34.6456 49.4881 35.003 50.3305 35.4033C51.2174 35.8255 52.1364 36.1926 52.985 36.6817C53.6293 37.0529 53.8595 37.7008 53.687 38.4559C53.5272 39.158 52.9957 39.4709 52.3713 39.5307C51.4216 39.621 50.4474 39.7078 49.5075 39.596C48.3756 39.4612 47.2677 39.1176 46.1082 38.8552L45.5169 41.8114C48.2398 42.8335 50.934 43.001 53.6543 42.398C55.9309 41.8936 57.2277 40.562 57.4034 38.7587V38.7587ZM42.8957 33.9328C41.8955 33.4024 40.8198 33.0154 39.7874 32.5426C39.1466 32.249 38.4681 31.9942 37.9034 31.5873C36.8174 30.8046 37.0196 29.3041 38.2843 28.9028C39.0098 28.672 39.8303 28.6005 40.5926 28.6577C41.631 28.7358 42.6557 29.0044 43.7386 29.2004L44.3809 26.3689C43.8311 26.2193 43.3333 26.0564 42.8232 25.9492C40.7958 25.5223 38.7576 25.3569 36.7608 26.0589C35.0453 26.6624 33.8552 27.7908 33.6198 29.689C33.3563 31.8089 34.0594 33.4825 36.0174 34.4894C36.8011 34.8927 37.641 35.1853 38.441 35.559C39.2396 35.9317 40.0549 36.2876 40.7968 36.7552C41.364 37.1126 41.5876 37.7177 41.4278 38.4171C41.2691 39.1105 40.7636 39.4597 40.1346 39.5245C39.1849 39.6221 38.2103 39.7124 37.2698 39.6027C36.1333 39.4699 35.0218 39.1253 33.8419 38.8598C33.6678 39.6833 33.4636 40.513 33.3364 41.3539C33.3089 41.5367 33.5126 41.8879 33.6841 41.9477C36.433 42.9004 39.2309 43.0372 42.0267 42.2137C43.6963 41.7225 44.8639 40.6559 45.0993 38.8322C45.3663 36.7619 44.8726 34.9805 42.8957 33.9328V33.9328Z" fill="#6218FF"/>
<path fill-rule="evenodd" clip-rule="evenodd" d="M63.1467 30.2609C62.8404 29.5977 62.6923 28.8129 62.6606 28.0741C62.582 26.256 62.6489 24.4313 62.5667 22.6131C62.4932 20.985 61.9121 19.5176 60.3488 18.6782C58.9723 17.9394 57.3768 17.8659 55.8451 17.8486V20.7542C56.3557 20.7715 56.2301 20.7874 56.3547 20.794C58.4117 20.8951 59.101 21.5476 59.127 23.5883C59.1464 25.1057 59.1332 26.6241 59.1577 28.141C59.1878 29.9816 59.4625 31.7384 61.1458 32.9005C61.1744 32.9204 61.1718 32.9934 61.1882 33.0782C60.3314 33.6868 59.6534 34.4705 59.4563 35.5401C59.2976 36.4055 59.2077 37.2913 59.1806 38.171C59.1316 39.763 59.1822 41.3585 59.1367 42.9504C59.101 44.1972 58.5103 44.7823 57.2967 45.0601C56.8397 45.1652 56.3557 45.2025 55.8451 45.2674V48.1658C56.8663 48.1046 57.3855 48.0642 58.085 47.9887C60.7174 47.7038 62.1996 46.3339 62.5034 43.7801C62.5983 42.9795 62.5876 42.1636 62.6055 41.3549C62.6392 39.839 62.6218 38.316 62.7576 36.8094C62.896 35.2721 64.0141 34.4225 65.5458 34.5072V31.4689C64.5247 31.6516 63.5837 31.21 63.1467 30.2609V30.2609ZM15.1604 36.4555C15.1599 30.559 15.0001 24.6625 15.0001 18.7666V17.8389C13.4684 17.8389 11.8213 17.8241 10.2054 17.846C9.54928 17.8547 8.97081 17.9109 8.32035 17.9997C5.83034 18.3387 4.63 19.5074 4.18888 21.9882C4.06123 22.704 4.08676 23.4479 4.07604 24.1801C4.05613 25.5719 4.09595 26.9642 4.07349 28.3555C4.04541 30.1077 3.21983 31.4658 1.43285 31.5689C1.36954 31.5725 1.72541 31.6455 1.21484 31.6894V34.398C3.2571 34.7186 3.90704 35.5432 4.04285 37.4404C4.0643 37.7427 4.06991 38.0475 4.07298 38.3513C4.09034 40.0463 4.07094 41.744 4.14752 43.436C4.21951 45.0151 4.57027 46.4263 6.06264 47.255C7.45648 48.029 9.38386 48.0918 10.405 48.1321V45.2403C10.405 45.2158 10.2978 45.1933 10.1982 45.1872C7.98287 45.0519 7.48354 44.4505 7.47027 42.2336C7.46159 40.7657 7.52439 39.2978 7.5009 37.83C7.47129 35.9858 7.20171 34.2366 5.53217 33.0695C5.50664 33.0516 5.53166 32.9761 5.52349 32.8739C6.64622 32.1643 7.24307 31.0788 7.40542 29.7626C7.49528 29.0365 7.52541 28.3003 7.53817 27.5677C7.5637 26.0497 7.53664 24.5303 7.578 23.0134C7.6071 21.9474 8.28768 21.1703 9.15615 20.9957C9.97918 20.8297 10.405 20.8349 11.9367 20.7578V21.8075C11.9367 27.0714 11.7493 32.3348 11.7769 37.5987C11.7866 39.4015 11.9862 41.1788 13.9187 41.9574C14.9694 42.3806 16.0952 42.5108 17.3022 42.7957C17.5039 41.6153 17.5697 40.636 17.7346 39.667C15.5101 39.0288 15.1604 38.6979 15.1604 36.4555V36.4555ZM28.7791 26.2989C25.0316 24.5068 20.4835 26.0737 18.7384 29.8325C17.4242 32.6631 17.4712 35.5764 18.6281 38.4467C19.2556 40.0029 20.3896 41.168 21.933 41.8532C24.9474 43.1914 27.998 42.8662 31.0374 41.9267C31.2013 41.8757 31.4106 41.5602 31.3907 41.3927C31.287 40.5446 31.115 39.7048 30.9613 38.8292C30.2378 39.0114 29.6333 39.1978 29.0155 39.3137C27.3833 39.6205 25.7474 39.62 24.1591 38.9884C22.5906 38.3656 21.5373 36.5735 21.7992 35.0418H32.4557C32.5859 33.5101 32.5343 31.404 31.8823 29.6625C31.3003 28.1058 30.2955 27.0244 28.7791 26.2989V26.2989ZM28.7567 32.4895H21.7538C21.7574 30.4472 23.4203 28.6143 25.6019 28.6562C27.518 28.6929 28.8435 30.4472 28.7567 32.4895ZM57.4034 38.7587C57.6546 36.1783 56.8754 34.7263 54.5779 33.6051C53.763 33.2073 52.8982 32.9127 52.068 32.5441C51.4466 32.2684 50.8212 31.9891 50.2402 31.6399C49.6745 31.3004 49.4376 30.7367 49.5213 30.0766C49.6035 29.4246 50.0227 28.9947 50.6282 28.8721C51.3619 28.7231 52.1308 28.5954 52.8685 28.6557C53.9111 28.7409 54.9394 29.008 56.0151 29.2045L56.6952 26.2341C55.2396 26.0125 53.8825 25.7261 52.5111 25.6178C50.9861 25.4978 49.5009 25.7511 48.105 26.4705C45.1555 27.9904 45.1013 32.6564 47.8119 34.1881C48.6217 34.6456 49.4881 35.003 50.3305 35.4033C51.2174 35.8255 52.1364 36.1926 52.985 36.6817C53.6293 37.0529 53.8595 37.7008 53.687 38.4559C53.5272 39.158 52.9957 39.4709 52.3713 39.5307C51.4216 39.621 50.4474 39.7078 49.5075 39.596C48.3756 39.4612 47.2677 39.1176 46.1082 38.8552L45.5169 41.8114C48.2398 42.8335 50.934 43.001 53.6543 42.398C55.9309 41.8936 57.2277 40.562 57.4034 38.7587V38.7587ZM42.8957 33.9328C41.8955 33.4024 40.8198 33.0154 39.7874 32.5426C39.1466 32.249 38.4681 31.9942 37.9034 31.5873C36.8174 30.8046 37.0196 29.3041 38.2843 28.9028C39.0098 28.672 39.8303 28.6005 40.5926 28.6577C41.631 28.7358 42.6557 29.0044 43.7386 29.2004L44.3809 26.3689C43.8311 26.2193 43.3333 26.0564 42.8232 25.9492C40.7958 25.5223 38.7576 25.3569 36.7608 26.0589C35.0453 26.6624 33.8552 27.7908 33.6198 29.689C33.3563 31.8089 34.0594 33.4825 36.0174 34.4894C36.8011 34.8927 37.641 35.1853 38.441 35.559C39.2396 35.9317 40.0549 36.2876 40.7968 36.7552C41.364 37.1126 41.5876 37.7177 41.4278 38.4171C41.2691 39.1105 40.7636 39.4597 40.1346 39.5245C39.1849 39.6221 38.2103 39.7124 37.2698 39.6027C36.1333 39.4699 35.0218 39.1253 33.8419 38.8598C33.6678 39.6833 33.4636 40.513 33.3364 41.3539C33.3089 41.5367 33.5126 41.8879 33.6841 41.9477C36.433 42.9004 39.2309 43.0372 42.0267 42.2137C43.6963 41.7225 44.8639 40.6559 45.0993 38.8322C45.3663 36.7619 44.8726 34.9805 42.8957 33.9328V33.9328Z" stroke="white" stroke-width="0.816901" mask="url(#path-1-outside-1_1150_299)"/>
</g>
<defs>
<clipPath id="clip0_1150_299">
<rect width="65.3521" height="65.3521" fill="white" transform="translate(0.704102 0.324219)"/>
</clipPath>
</defs>
</svg>
