<svg width="74" height="66" viewBox="0 0 74 66" fill="none" xmlns="http://www.w3.org/2000/svg">
<g id="logos:react" clip-path="url(#clip0_1205_665)">
<path id="Vector" d="M60.444 21.4555C59.6631 21.1876 58.8756 20.9394 58.0822 20.7111C58.2155 20.1665 58.3382 19.6286 58.4471 19.1C60.235 10.4208 59.0662 3.42864 55.0738 1.12648C51.246 -1.08051 44.9858 1.22078 38.6635 6.72308C38.0404 7.26632 37.4311 7.82523 36.8363 8.39925C36.4381 8.01754 36.0328 7.64324 35.6207 7.27655C28.9946 1.39333 22.3529 -1.08625 18.3649 1.2225C14.5405 3.43637 13.408 10.0095 15.0177 18.235C15.1778 19.0496 15.3587 19.8601 15.56 20.6656C14.6199 20.9327 13.7127 21.217 12.8445 21.5197C5.0759 24.2283 0.114746 28.4729 0.114746 32.8757C0.114746 37.423 5.44077 41.984 13.5321 44.7496C14.1881 44.9729 14.8496 45.1798 15.5158 45.3701C15.2995 46.2377 15.1073 47.1111 14.9397 47.9893C13.4052 56.0721 14.6035 62.4898 18.4176 64.6897C22.357 66.9614 28.9688 64.6266 35.4066 58.9988C35.9286 58.5412 36.4392 58.0707 36.9377 57.5877C37.5819 58.2093 38.2433 58.8128 38.9212 59.3975C45.1575 64.7636 51.3165 66.9305 55.1268 64.7246C59.0625 62.4463 60.3416 55.5519 58.681 47.1638C58.5501 46.5067 58.4034 45.8528 58.241 45.2028C58.7053 45.0652 59.161 44.9236 59.6053 44.7763C68.0171 41.9894 73.4902 37.4837 73.4902 32.8757C73.4902 28.4568 68.3688 24.1836 60.444 21.4555ZM58.6196 41.8011C58.2183 41.9338 57.8068 42.062 57.3871 42.1866C56.4585 39.2467 55.2054 36.1208 53.6716 32.8909C55.1351 29.738 56.3401 26.652 57.2427 23.7313C57.9933 23.9485 58.7217 24.1775 59.4239 24.4192C66.214 26.7569 70.3557 30.2127 70.3557 32.8757C70.3557 35.7121 65.8826 39.3944 58.6196 41.8011ZM55.6061 47.7726C56.3404 51.4815 56.445 54.835 55.9586 57.4567C55.5218 59.8125 54.643 61.3829 53.5561 62.012C51.2439 63.3506 46.2988 61.6108 40.9657 57.0214C40.3352 56.4777 39.72 55.9167 39.1207 55.3389C41.1884 53.0777 43.2546 50.4491 45.2713 47.5296C48.8186 47.2149 52.1697 46.7001 55.2088 45.9976C55.3552 46.586 55.4877 47.1779 55.6061 47.7726ZM25.13 61.7807C22.8709 62.5784 21.0715 62.6013 19.9837 61.9742C17.6692 60.6394 16.7071 55.4862 18.0195 48.574C18.1755 47.7572 18.3541 46.9449 18.5552 46.138C21.5607 46.803 24.8876 47.2811 28.4431 47.5694C30.4735 50.4262 32.5994 53.0519 34.7419 55.3512C34.2866 55.7918 33.8205 56.2211 33.3441 56.6387C30.497 59.1272 27.6443 60.8928 25.13 61.7807ZM14.5462 41.7836C10.9683 40.5606 8.0135 38.9713 5.98822 37.2369C4.16817 35.6786 3.24954 34.1311 3.24954 32.8757C3.24954 30.2038 7.23274 26.7958 13.8764 24.4796C14.6826 24.1988 15.5265 23.9336 16.4021 23.6848C17.3204 26.6714 18.5248 29.7942 19.9783 32.9519C18.5059 36.1564 17.2843 39.329 16.3571 42.3509C15.7489 42.1767 15.1451 41.9875 14.5462 41.7836ZM18.094 17.6328C16.7151 10.5856 17.6308 5.26961 19.9356 3.93538C22.3902 2.51431 27.8183 4.54044 33.5396 9.62055C33.9126 9.95257 34.2797 10.2913 34.6405 10.6366C32.5086 12.9259 30.4022 15.5321 28.3898 18.372C24.9389 18.6919 21.6355 19.2055 18.5985 19.8937C18.4114 19.1445 18.2432 18.3905 18.094 17.6328ZM49.7449 25.4484C49.0276 24.2093 48.2836 22.9858 47.5136 21.7788C49.8547 22.0749 52.0978 22.4678 54.2042 22.9482C53.5719 24.9752 52.7837 27.0942 51.8559 29.2668C51.1777 27.9801 50.4739 26.707 49.7449 25.4484ZM36.8377 12.8769C38.2834 14.4433 39.7315 16.1919 41.1557 18.0894C38.2665 17.9529 35.3726 17.9524 32.4833 18.0877C33.909 16.2077 35.3694 14.4613 36.8377 12.8769ZM23.8477 25.4699C23.1278 26.7184 22.4371 27.9835 21.7763 29.2642C20.8637 27.0994 20.0826 24.9706 19.4449 22.915C21.5384 22.4466 23.7709 22.0637 26.0971 21.7731C25.3185 22.9875 24.5685 24.2203 23.8477 25.4699ZM26.1639 44.2013C23.7606 43.933 21.4945 43.5699 19.4016 43.1141C20.0494 41.0218 20.8476 38.8478 21.78 36.6365C22.4435 37.9181 23.137 39.184 23.86 40.4331C24.6035 41.7171 25.3734 42.9748 26.1639 44.2013ZM36.9243 53.0952C35.4384 51.4924 33.9566 49.7191 32.5094 47.8119C33.9145 47.8669 35.3467 47.895 36.8025 47.895C38.2981 47.895 39.7765 47.8615 41.2316 47.7967C39.8028 49.7383 38.3603 51.5142 36.9243 53.0952ZM51.8854 36.5235C52.8662 38.7592 53.6929 40.9218 54.3492 42.9783C52.2219 43.4638 49.9249 43.8548 47.5047 44.1451C48.2802 42.9157 49.0312 41.6709 49.7572 40.4116C50.4954 39.1315 51.205 37.8352 51.8854 36.5235ZM47.0421 38.8455C45.9306 40.7763 44.7566 42.6704 43.522 44.5249C41.2857 44.6833 39.0444 44.762 36.8025 44.7608C34.5189 44.7608 32.2979 44.6897 30.1591 44.551C28.8923 42.7008 27.696 40.8033 26.5726 38.8627C25.4545 36.9323 24.4105 34.9601 23.4421 32.9505C24.408 30.9404 25.4492 28.9673 26.5634 27.0355L26.5632 27.0357C27.677 25.1034 28.8638 23.2141 30.121 21.3718C32.3031 21.2067 34.5407 21.1207 36.8022 21.1207C39.0739 21.1207 41.3148 21.2076 43.4963 21.3738C44.7408 23.2133 45.92 25.0962 47.0317 27.0188C48.1497 28.9464 49.2046 30.9099 50.1949 32.9061C49.2148 34.9227 48.1632 36.9037 47.0421 38.8455ZM53.5083 3.84195C55.9652 5.25901 56.9208 10.9734 55.3771 18.4672C55.2785 18.9452 55.1678 19.4322 55.0474 19.9261C52.0029 19.2233 48.6973 18.7008 45.2363 18.376C43.2202 15.5049 41.131 12.8946 39.0338 10.6349C39.5835 10.1051 40.1462 9.58901 40.7215 9.08714C46.1386 4.37306 51.2015 2.51173 53.5083 3.84195ZM36.8025 26.3235C40.4211 26.3235 43.3547 29.2571 43.3547 32.8757C43.3547 36.4943 40.4211 39.4279 36.8025 39.4279C33.1838 39.4279 30.2503 36.4943 30.2503 32.8757C30.2503 29.2571 33.1838 26.3235 36.8025 26.3235Z" fill="#6218FF"/>
</g>
<defs>
<clipPath id="clip0_1205_665">
<rect width="73.3754" height="65.35" fill="white" transform="translate(0.114746 0.295898)"/>
</clipPath>
</defs>
</svg>
