<svg width="67" height="66" viewBox="0 0 67 66" fill="none" xmlns="http://www.w3.org/2000/svg">
<mask id="path-1-outside-1_1150_391" maskUnits="userSpaceOnUse" x="4.58301" y="10.3125" width="58" height="46" fill="black">
<rect fill="white" x="4.58301" y="10.3125" width="58" height="46"/>
<path d="M45.0836 45.5247C45.2418 45.5345 45.4125 45.5546 45.5831 45.5546C47.999 45.5571 50.4173 45.5425 52.8332 45.5667C53.3624 45.5719 53.5207 45.3912 53.4935 44.8843C53.4589 44.224 53.486 43.5613 53.486 42.7453C56.2283 44.7631 58.8791 46.7116 61.5991 48.7146C58.8989 50.7027 56.2481 52.6537 53.486 54.6888C53.486 53.9197 53.486 53.2842 53.486 52.6487C53.486 51.8278 53.486 51.8253 52.6873 51.8253C37.2399 51.8253 21.7901 51.8253 6.34277 51.8253C5.596 51.8253 5.596 51.8253 5.596 51.0736C5.596 49.444 5.61827 47.8145 5.58363 46.1874C5.57126 45.6582 5.74188 45.5395 6.2488 45.542C14.5548 45.5569 22.8608 45.5691 31.1668 45.5471C35.4249 45.535 38.7854 43.7717 41.0084 40.1021C45.0192 33.4751 40.8378 24.7957 33.1525 23.678C27.2178 22.815 21.7011 26.7987 20.6947 32.8347C20.5884 33.4628 20.5809 34.1081 20.5191 34.8648C21.4909 34.7338 22.3712 34.6126 23.3677 34.479C21.8074 37.4958 20.3015 40.4087 18.7733 43.3612C16.4316 40.9478 14.1246 38.5715 11.8694 36.2471C12.4357 36.1531 13.1874 36.0443 13.9317 35.8885C14.0726 35.8586 14.2803 35.6314 14.2754 35.5003C14.2333 33.9202 14.3422 32.3574 14.6513 30.807C14.6611 30.76 14.6389 30.7056 14.624 30.6141C13.1157 30.3569 11.7161 29.8129 10.4475 28.9376C7.3467 26.7912 5.72456 22.7977 6.48618 19.1578C7.31455 15.1915 10.3066 12.2266 14.174 11.4947C16.6814 11.0224 19.0058 11.4723 21.1645 12.7978C21.5453 13.0327 21.7777 13.0674 22.0275 12.6594C22.1734 12.4196 22.3935 12.2267 22.6457 11.9349C22.9597 13.2009 23.254 14.3854 23.5458 15.5698C23.6447 15.968 23.7213 16.3735 23.8375 16.7667C23.9637 17.192 23.8351 17.3824 23.385 17.3527C22.0844 17.2637 20.7812 17.1846 19.4805 17.098C19.1591 17.0756 18.8401 17.0412 18.4271 17.0016C18.7486 16.5961 19.0404 16.2325 19.3594 15.8344C18.6572 15.3002 17.8832 15.0331 17.0771 14.902C13.18 14.2641 9.74534 17.2586 9.82447 21.2026C9.88382 24.2293 12.4357 26.9345 15.45 27.1917C15.8407 27.2239 15.9767 27.026 16.1275 26.7342C18.264 22.6344 21.4811 19.7363 25.8579 18.2279C35.9838 14.7364 46.5549 20.9924 48.5059 31.2322C49.4678 36.2741 48.3723 40.8784 45.3136 45.0054C45.2295 45.1192 45.1528 45.2403 45.0787 45.3615C45.0637 45.3839 45.0838 45.4283 45.0959 45.5222L45.0836 45.5247Z"/>
</mask>
<path d="M45.0836 45.5247C45.2418 45.5345 45.4125 45.5546 45.5831 45.5546C47.999 45.5571 50.4173 45.5425 52.8332 45.5667C53.3624 45.5719 53.5207 45.3912 53.4935 44.8843C53.4589 44.224 53.486 43.5613 53.486 42.7453C56.2283 44.7631 58.8791 46.7116 61.5991 48.7146C58.8989 50.7027 56.2481 52.6537 53.486 54.6888C53.486 53.9197 53.486 53.2842 53.486 52.6487C53.486 51.8278 53.486 51.8253 52.6873 51.8253C37.2399 51.8253 21.7901 51.8253 6.34277 51.8253C5.596 51.8253 5.596 51.8253 5.596 51.0736C5.596 49.444 5.61827 47.8145 5.58363 46.1874C5.57126 45.6582 5.74188 45.5395 6.2488 45.542C14.5548 45.5569 22.8608 45.5691 31.1668 45.5471C35.4249 45.535 38.7854 43.7717 41.0084 40.1021C45.0192 33.4751 40.8378 24.7957 33.1525 23.678C27.2178 22.815 21.7011 26.7987 20.6947 32.8347C20.5884 33.4628 20.5809 34.1081 20.5191 34.8648C21.4909 34.7338 22.3712 34.6126 23.3677 34.479C21.8074 37.4958 20.3015 40.4087 18.7733 43.3612C16.4316 40.9478 14.1246 38.5715 11.8694 36.2471C12.4357 36.1531 13.1874 36.0443 13.9317 35.8885C14.0726 35.8586 14.2803 35.6314 14.2754 35.5003C14.2333 33.9202 14.3422 32.3574 14.6513 30.807C14.6611 30.76 14.6389 30.7056 14.624 30.6141C13.1157 30.3569 11.7161 29.8129 10.4475 28.9376C7.3467 26.7912 5.72456 22.7977 6.48618 19.1578C7.31455 15.1915 10.3066 12.2266 14.174 11.4947C16.6814 11.0224 19.0058 11.4723 21.1645 12.7978C21.5453 13.0327 21.7777 13.0674 22.0275 12.6594C22.1734 12.4196 22.3935 12.2267 22.6457 11.9349C22.9597 13.2009 23.254 14.3854 23.5458 15.5698C23.6447 15.968 23.7213 16.3735 23.8375 16.7667C23.9637 17.192 23.8351 17.3824 23.385 17.3527C22.0844 17.2637 20.7812 17.1846 19.4805 17.098C19.1591 17.0756 18.8401 17.0412 18.4271 17.0016C18.7486 16.5961 19.0404 16.2325 19.3594 15.8344C18.6572 15.3002 17.8832 15.0331 17.0771 14.902C13.18 14.2641 9.74534 17.2586 9.82447 21.2026C9.88382 24.2293 12.4357 26.9345 15.45 27.1917C15.8407 27.2239 15.9767 27.026 16.1275 26.7342C18.264 22.6344 21.4811 19.7363 25.8579 18.2279C35.9838 14.7364 46.5549 20.9924 48.5059 31.2322C49.4678 36.2741 48.3723 40.8784 45.3136 45.0054C45.2295 45.1192 45.1528 45.2403 45.0787 45.3615C45.0637 45.3839 45.0838 45.4283 45.0959 45.5222L45.0836 45.5247Z" fill="#6218FF"/>
<path d="M45.0836 45.5247C45.2418 45.5345 45.4125 45.5546 45.5831 45.5546C47.999 45.5571 50.4173 45.5425 52.8332 45.5667C53.3624 45.5719 53.5207 45.3912 53.4935 44.8843C53.4589 44.224 53.486 43.5613 53.486 42.7453C56.2283 44.7631 58.8791 46.7116 61.5991 48.7146C58.8989 50.7027 56.2481 52.6537 53.486 54.6888C53.486 53.9197 53.486 53.2842 53.486 52.6487C53.486 51.8278 53.486 51.8253 52.6873 51.8253C37.2399 51.8253 21.7901 51.8253 6.34277 51.8253C5.596 51.8253 5.596 51.8253 5.596 51.0736C5.596 49.444 5.61827 47.8145 5.58363 46.1874C5.57126 45.6582 5.74188 45.5395 6.2488 45.542C14.5548 45.5569 22.8608 45.5691 31.1668 45.5471C35.4249 45.535 38.7854 43.7717 41.0084 40.1021C45.0192 33.4751 40.8378 24.7957 33.1525 23.678C27.2178 22.815 21.7011 26.7987 20.6947 32.8347C20.5884 33.4628 20.5809 34.1081 20.5191 34.8648C21.4909 34.7338 22.3712 34.6126 23.3677 34.479C21.8074 37.4958 20.3015 40.4087 18.7733 43.3612C16.4316 40.9478 14.1246 38.5715 11.8694 36.2471C12.4357 36.1531 13.1874 36.0443 13.9317 35.8885C14.0726 35.8586 14.2803 35.6314 14.2754 35.5003C14.2333 33.9202 14.3422 32.3574 14.6513 30.807C14.6611 30.76 14.6389 30.7056 14.624 30.6141C13.1157 30.3569 11.7161 29.8129 10.4475 28.9376C7.3467 26.7912 5.72456 22.7977 6.48618 19.1578C7.31455 15.1915 10.3066 12.2266 14.174 11.4947C16.6814 11.0224 19.0058 11.4723 21.1645 12.7978C21.5453 13.0327 21.7777 13.0674 22.0275 12.6594C22.1734 12.4196 22.3935 12.2267 22.6457 11.9349C22.9597 13.2009 23.254 14.3854 23.5458 15.5698C23.6447 15.968 23.7213 16.3735 23.8375 16.7667C23.9637 17.192 23.8351 17.3824 23.385 17.3527C22.0844 17.2637 20.7812 17.1846 19.4805 17.098C19.1591 17.0756 18.8401 17.0412 18.4271 17.0016C18.7486 16.5961 19.0404 16.2325 19.3594 15.8344C18.6572 15.3002 17.8832 15.0331 17.0771 14.902C13.18 14.2641 9.74534 17.2586 9.82447 21.2026C9.88382 24.2293 12.4357 26.9345 15.45 27.1917C15.8407 27.2239 15.9767 27.026 16.1275 26.7342C18.264 22.6344 21.4811 19.7363 25.8579 18.2279C35.9838 14.7364 46.5549 20.9924 48.5059 31.2322C49.4678 36.2741 48.3723 40.8784 45.3136 45.0054C45.2295 45.1192 45.1528 45.2403 45.0787 45.3615C45.0637 45.3839 45.0838 45.4283 45.0959 45.5222L45.0836 45.5247Z" stroke="white" stroke-width="0.816901" mask="url(#path-1-outside-1_1150_391)"/>
</svg>
