<svg width="66" height="66" viewBox="0 0 66 66" fill="none" xmlns="http://www.w3.org/2000/svg">
<mask id="path-1-outside-1_1150_350" maskUnits="userSpaceOnUse" x="7.78174" y="3.40234" width="50" height="59" fill="black">
<rect fill="white" x="7.78174" y="3.40234" width="50" height="59"/>
<path d="M33.1516 38.5143C32.1693 38.9657 31.093 39.5538 28.9385 40.7363C28.1216 41.1958 27.2679 41.6553 26.4735 42.0883C26.4183 42.0331 26.3611 41.9637 26.306 41.9065C22.0438 37.3523 14.1607 34.1357 14.4957 28.0192C14.6202 25.7911 15.3861 19.9421 29.6349 12.8391C41.3615 7.05952 50.6926 8.66065 52.3039 12.2121C54.6198 17.2749 47.3024 26.6958 35.1919 28.0621C33.8515 28.3339 32.4672 28.3011 31.1412 27.966C29.8153 27.6309 28.5816 27.002 27.5314 26.126C26.8901 25.4296 26.7941 25.3887 26.5572 25.5276C26.1671 25.7318 26.4183 26.3629 26.5572 26.7244C27.0192 27.5608 27.6441 28.2961 28.3951 28.8868C29.1462 29.4775 30.008 29.9116 30.9297 30.1635C35.6955 31.1936 40.6645 30.7015 45.1356 28.7564C52.4754 25.9156 58.206 18.0183 56.5273 11.3973C54.8424 4.68438 43.6999 2.47057 33.1578 6.21607C26.5557 8.44089 20.456 11.9432 15.2064 16.5233C9.39819 21.9557 8.47917 26.6774 8.85495 28.6543C10.2069 35.6735 19.8831 40.2421 23.7634 43.6261C23.5592 43.7384 23.3876 43.8303 23.2345 43.9181C21.2984 44.88 13.9177 48.7378 12.0776 52.8183C9.9884 57.4419 12.4126 60.7565 14.0137 61.2017C16.4266 61.7797 18.9597 61.5897 21.2594 60.6582C23.5591 59.7268 25.5105 58.1004 26.8411 56.0062C27.971 54.2696 28.6648 52.2859 28.8636 50.2236C29.0624 48.1613 28.7602 46.0816 27.9827 44.1611C28.4414 43.7953 28.9306 43.4694 29.4449 43.187C30.4334 42.6029 31.3749 42.027 32.2102 41.5818C35.0701 40.2422 38.1911 39.5524 41.3492 39.562C47.9784 40.3421 49.2875 44.4777 49.0363 46.2197C48.9188 46.8378 48.6702 47.4235 48.3074 47.9375C47.9446 48.4515 47.4758 48.8817 46.9328 49.1994C46.4733 49.4914 46.3201 49.5895 46.3609 49.7978C46.4161 50.1041 46.6387 50.0898 47.0288 50.0347C48.0247 49.7199 48.9022 49.1112 49.5459 48.2885C50.1896 47.4659 50.5694 46.4678 50.6354 45.4253C50.8396 41.3408 46.945 36.8601 40.0504 36.9009C37.9859 36.9045 35.9421 37.3117 34.0339 38.0997C33.7276 38.2264 33.4301 38.3625 33.1414 38.5082L33.1516 38.5143ZM23.2978 54.5235C21.0962 56.9191 18.0328 57.8238 16.7095 57.058C15.2799 56.2411 15.8456 52.6978 18.5475 50.1633C20.1477 48.7215 21.8773 47.4301 23.7144 46.3055C24.035 46.1013 24.5088 45.8317 25.0786 45.4886C25.1766 45.4335 25.2318 45.4049 25.2318 45.4049L25.5667 45.2007C26.0486 46.8163 26.0924 48.531 25.6938 50.1691C25.2951 51.8073 24.4682 53.31 23.2978 54.5235V54.5235Z"/>
</mask>
<path d="M33.1516 38.5143C32.1693 38.9657 31.093 39.5538 28.9385 40.7363C28.1216 41.1958 27.2679 41.6553 26.4735 42.0883C26.4183 42.0331 26.3611 41.9637 26.306 41.9065C22.0438 37.3523 14.1607 34.1357 14.4957 28.0192C14.6202 25.7911 15.3861 19.9421 29.6349 12.8391C41.3615 7.05952 50.6926 8.66065 52.3039 12.2121C54.6198 17.2749 47.3024 26.6958 35.1919 28.0621C33.8515 28.3339 32.4672 28.3011 31.1412 27.966C29.8153 27.6309 28.5816 27.002 27.5314 26.126C26.8901 25.4296 26.7941 25.3887 26.5572 25.5276C26.1671 25.7318 26.4183 26.3629 26.5572 26.7244C27.0192 27.5608 27.6441 28.2961 28.3951 28.8868C29.1462 29.4775 30.008 29.9116 30.9297 30.1635C35.6955 31.1936 40.6645 30.7015 45.1356 28.7564C52.4754 25.9156 58.206 18.0183 56.5273 11.3973C54.8424 4.68438 43.6999 2.47057 33.1578 6.21607C26.5557 8.44089 20.456 11.9432 15.2064 16.5233C9.39819 21.9557 8.47917 26.6774 8.85495 28.6543C10.2069 35.6735 19.8831 40.2421 23.7634 43.6261C23.5592 43.7384 23.3876 43.8303 23.2345 43.9181C21.2984 44.88 13.9177 48.7378 12.0776 52.8183C9.9884 57.4419 12.4126 60.7565 14.0137 61.2017C16.4266 61.7797 18.9597 61.5897 21.2594 60.6582C23.5591 59.7268 25.5105 58.1004 26.8411 56.0062C27.971 54.2696 28.6648 52.2859 28.8636 50.2236C29.0624 48.1613 28.7602 46.0816 27.9827 44.1611C28.4414 43.7953 28.9306 43.4694 29.4449 43.187C30.4334 42.6029 31.3749 42.027 32.2102 41.5818C35.0701 40.2422 38.1911 39.5524 41.3492 39.562C47.9784 40.3421 49.2875 44.4777 49.0363 46.2197C48.9188 46.8378 48.6702 47.4235 48.3074 47.9375C47.9446 48.4515 47.4758 48.8817 46.9328 49.1994C46.4733 49.4914 46.3201 49.5895 46.3609 49.7978C46.4161 50.1041 46.6387 50.0898 47.0288 50.0347C48.0247 49.7199 48.9022 49.1112 49.5459 48.2885C50.1896 47.4659 50.5694 46.4678 50.6354 45.4253C50.8396 41.3408 46.945 36.8601 40.0504 36.9009C37.9859 36.9045 35.9421 37.3117 34.0339 38.0997C33.7276 38.2264 33.4301 38.3625 33.1414 38.5082L33.1516 38.5143ZM23.2978 54.5235C21.0962 56.9191 18.0328 57.8238 16.7095 57.058C15.2799 56.2411 15.8456 52.6978 18.5475 50.1633C20.1477 48.7215 21.8773 47.4301 23.7144 46.3055C24.035 46.1013 24.5088 45.8317 25.0786 45.4886C25.1766 45.4335 25.2318 45.4049 25.2318 45.4049L25.5667 45.2007C26.0486 46.8163 26.0924 48.531 25.6938 50.1691C25.2951 51.8073 24.4682 53.31 23.2978 54.5235V54.5235Z" fill="#6218FF"/>
<path d="M33.1516 38.5143C32.1693 38.9657 31.093 39.5538 28.9385 40.7363C28.1216 41.1958 27.2679 41.6553 26.4735 42.0883C26.4183 42.0331 26.3611 41.9637 26.306 41.9065C22.0438 37.3523 14.1607 34.1357 14.4957 28.0192C14.6202 25.7911 15.3861 19.9421 29.6349 12.8391C41.3615 7.05952 50.6926 8.66065 52.3039 12.2121C54.6198 17.2749 47.3024 26.6958 35.1919 28.0621C33.8515 28.3339 32.4672 28.3011 31.1412 27.966C29.8153 27.6309 28.5816 27.002 27.5314 26.126C26.8901 25.4296 26.7941 25.3887 26.5572 25.5276C26.1671 25.7318 26.4183 26.3629 26.5572 26.7244C27.0192 27.5608 27.6441 28.2961 28.3951 28.8868C29.1462 29.4775 30.008 29.9116 30.9297 30.1635C35.6955 31.1936 40.6645 30.7015 45.1356 28.7564C52.4754 25.9156 58.206 18.0183 56.5273 11.3973C54.8424 4.68438 43.6999 2.47057 33.1578 6.21607C26.5557 8.44089 20.456 11.9432 15.2064 16.5233C9.39819 21.9557 8.47917 26.6774 8.85495 28.6543C10.2069 35.6735 19.8831 40.2421 23.7634 43.6261C23.5592 43.7384 23.3876 43.8303 23.2345 43.9181C21.2984 44.88 13.9177 48.7378 12.0776 52.8183C9.9884 57.4419 12.4126 60.7565 14.0137 61.2017C16.4266 61.7797 18.9597 61.5897 21.2594 60.6582C23.5591 59.7268 25.5105 58.1004 26.8411 56.0062C27.971 54.2696 28.6648 52.2859 28.8636 50.2236C29.0624 48.1613 28.7602 46.0816 27.9827 44.1611C28.4414 43.7953 28.9306 43.4694 29.4449 43.187C30.4334 42.6029 31.3749 42.027 32.2102 41.5818C35.0701 40.2422 38.1911 39.5524 41.3492 39.562C47.9784 40.3421 49.2875 44.4777 49.0363 46.2197C48.9188 46.8378 48.6702 47.4235 48.3074 47.9375C47.9446 48.4515 47.4758 48.8817 46.9328 49.1994C46.4733 49.4914 46.3201 49.5895 46.3609 49.7978C46.4161 50.1041 46.6387 50.0898 47.0288 50.0347C48.0247 49.7199 48.9022 49.1112 49.5459 48.2885C50.1896 47.4659 50.5694 46.4678 50.6354 45.4253C50.8396 41.3408 46.945 36.8601 40.0504 36.9009C37.9859 36.9045 35.9421 37.3117 34.0339 38.0997C33.7276 38.2264 33.4301 38.3625 33.1414 38.5082L33.1516 38.5143ZM23.2978 54.5235C21.0962 56.9191 18.0328 57.8238 16.7095 57.058C15.2799 56.2411 15.8456 52.6978 18.5475 50.1633C20.1477 48.7215 21.8773 47.4301 23.7144 46.3055C24.035 46.1013 24.5088 45.8317 25.0786 45.4886C25.1766 45.4335 25.2318 45.4049 25.2318 45.4049L25.5667 45.2007C26.0486 46.8163 26.0924 48.531 25.6938 50.1691C25.2951 51.8073 24.4682 53.31 23.2978 54.5235V54.5235Z" stroke="white" stroke-width="0.816901" mask="url(#path-1-outside-1_1150_350)"/>
</svg>
