<svg width="66" height="66" viewBox="0 0 66 66" fill="none" xmlns="http://www.w3.org/2000/svg">
<path d="M4.57715 32.9714V61.563H33.1687H61.7603V32.9714V4.37988H33.1687H4.57715V32.9714Z" fill="#6218FF"/>
<path d="M50.6584 30.6923C52.0278 31.0109 53.2721 31.728 54.2344 32.753C54.7643 33.3075 55.2245 33.9248 55.6048 34.591C55.6231 34.6645 53.1357 36.333 51.6285 37.2684C51.5734 37.3052 51.3569 37.0642 51.1118 36.7047C50.8371 36.2301 50.4464 35.8329 49.9764 35.5504C49.5063 35.2678 48.9723 35.1092 48.4242 35.0893C46.6903 34.9709 45.565 35.8797 45.5834 37.395C45.5687 37.7672 45.6532 38.1365 45.8285 38.4652C46.2104 39.2555 46.917 39.7273 49.141 40.6892C53.2255 42.4496 54.986 43.6116 56.0847 45.2638C56.6963 46.3072 57.0724 47.4717 57.1867 48.6757C57.301 49.8797 57.1507 51.0942 56.7464 52.234C56.1918 53.4856 55.3121 54.5659 54.1988 55.3625C53.0854 56.1591 51.779 56.6429 50.4154 56.7637C48.9671 56.9299 47.5038 56.9148 46.0593 56.7188C43.8461 56.3554 41.8072 55.2934 40.2409 53.6881C39.6495 53.0218 39.1489 52.2801 38.7521 51.4825C38.9193 51.3581 39.0954 51.2462 39.279 51.1475C39.5322 51.0025 40.5043 50.4491 41.4029 49.9222L43.0367 48.9685L43.3798 49.4729C43.9614 50.3045 44.702 51.0125 45.5589 51.556C46.4213 52.0288 47.3981 52.2529 48.3804 52.2031C49.3627 52.1534 50.3118 51.8318 51.122 51.2742C51.5374 50.8669 51.7968 50.3269 51.855 49.7481C51.9132 49.1693 51.7666 48.5884 51.4406 48.1066C50.9954 47.4715 50.0886 46.9364 47.5113 45.8193C45.4901 45.1351 43.6497 44.0027 42.1279 42.5068C41.4021 41.6797 40.866 40.7038 40.5574 39.6476C40.3291 38.4443 40.2953 37.2121 40.4574 35.9981C40.7602 34.6013 41.4852 33.3314 42.534 32.3604C43.5828 31.3894 44.9047 30.7643 46.3207 30.5698C47.7645 30.3926 49.2269 30.4339 50.6584 30.6923V30.6923ZM37.2347 33.0797L37.2531 35.4222H29.8111V56.5718H24.5462V35.4222H17.1022V33.1267C17.0819 32.3392 17.103 31.5512 17.1655 30.7659C17.192 30.7291 21.7217 30.7107 27.2133 30.7209L37.2061 30.7475L37.2347 33.0797Z" fill="white"/>
</svg>
