<svg width="43" height="42" viewBox="0 0 43 42" fill="none" xmlns="http://www.w3.org/2000/svg">
<path d="M28.5001 38.5469V33.5244C28.5658 32.6899 28.453 31.851 28.1694 31.0635C27.8858 30.276 27.4378 29.5579 26.8551 28.9569C32.3501 28.3444 38.1251 26.2619 38.1251 16.7069C38.1247 14.2636 37.1848 11.914 35.5001 10.1444C36.2979 8.00677 36.2415 5.644 35.3426 3.54689C35.3426 3.54689 33.2776 2.93439 28.5001 6.13689C24.4892 5.04983 20.2611 5.04983 16.2501 6.13689C11.4726 2.93439 9.40764 3.54689 9.40764 3.54689C8.50879 5.644 8.45239 8.00677 9.25013 10.1444C7.55286 11.9271 6.61205 14.2979 6.62513 16.7594C6.62513 26.2444 12.4001 28.3269 17.8951 29.0094C17.3194 29.6043 16.8753 30.3138 16.5919 31.0917C16.3085 31.8696 16.192 32.6985 16.2501 33.5244V38.5469" stroke="#8740ED" stroke-width="2" stroke-linecap="round" stroke-linejoin="round"/>
<path d="M16.25 35.0469C11 36.7496 6.625 35.0469 4 29.7969" stroke="#8740ED" stroke-width="2" stroke-linecap="round" stroke-linejoin="round"/>
</svg>
