<svg width="42" height="42" viewBox="0 0 42 42" fill="none" xmlns="http://www.w3.org/2000/svg">
<path d="M13.1247 15.7503H6.12469C5.89262 15.7503 5.67007 15.8425 5.50597 16.0066C5.34188 16.1707 5.24969 16.3933 5.24969 16.6253V37.6253C5.24969 37.8574 5.34188 38.0799 5.50597 38.244C5.67007 38.4081 5.89262 38.5003 6.12469 38.5003H13.1247C13.3568 38.5003 13.5793 38.4081 13.7434 38.244C13.9075 38.0799 13.9997 37.8574 13.9997 37.6253V16.6253C13.9997 16.3933 13.9075 16.1707 13.7434 16.0066C13.5793 15.8425 13.3568 15.7503 13.1247 15.7503ZM12.2497 36.7503H6.99969V17.5003H12.2497V36.7503ZM31.4997 15.7503C29.6009 15.7503 27.7547 16.3768 26.2497 17.5336V16.6253C26.2497 16.3933 26.1575 16.1707 25.9934 16.0066C25.8293 15.8425 25.6068 15.7503 25.3747 15.7503H18.3747C18.1426 15.7503 17.9201 15.8425 17.756 16.0066C17.5919 16.1707 17.4997 16.3933 17.4997 16.6253V37.6253C17.4997 37.8574 17.5919 38.0799 17.756 38.244C17.9201 38.4081 18.1426 38.5003 18.3747 38.5003H25.3747C25.6068 38.5003 25.8293 38.4081 25.9934 38.244C26.1575 38.0799 26.2497 37.8574 26.2497 37.6253V28.0003C26.2497 27.3041 26.5262 26.6364 27.0185 26.1442C27.5108 25.6519 28.1785 25.3753 28.8747 25.3753C29.5709 25.3753 30.2386 25.6519 30.7308 26.1442C31.2231 26.6364 31.4997 27.3041 31.4997 28.0003V37.6253C31.4997 37.8574 31.5919 38.0799 31.756 38.244C31.9201 38.4081 32.1426 38.5003 32.3747 38.5003H39.3747C39.6068 38.5003 39.8293 38.4081 39.9934 38.244C40.1575 38.0799 40.2497 37.8574 40.2497 37.6253V24.5003C40.2469 22.1805 39.3241 19.9565 37.6838 18.3162C36.0435 16.6759 33.8195 15.7531 31.4997 15.7503ZM38.4997 36.7503H33.2497V28.0003C33.2497 26.84 32.7888 25.7272 31.9683 24.9067C31.1478 24.0863 30.035 23.6253 28.8747 23.6253C27.7144 23.6253 26.6016 24.0863 25.7811 24.9067C24.9606 25.7272 24.4997 26.84 24.4997 28.0003V36.7503H19.2497V17.5003H24.4997V19.6056C24.4996 19.7868 24.5559 19.9636 24.6606 20.1115C24.7654 20.2594 24.9134 20.3711 25.0844 20.4312C25.2554 20.4913 25.4408 20.4969 25.615 20.4471C25.7893 20.3973 25.9438 20.2947 26.0572 20.1533C26.9559 19.0142 28.1876 18.1839 29.5807 17.7782C30.9737 17.3726 32.4587 17.4117 33.8284 17.8903C35.1982 18.3688 36.3844 19.2629 37.2218 20.4478C38.0592 21.6327 38.5059 23.0494 38.4997 24.5003V36.7503ZM10.2687 3.50382C10.0631 3.48933 9.85672 3.48816 9.65094 3.50032C8.99603 3.45576 8.33895 3.54614 7.7204 3.76586C7.10184 3.98559 6.53499 4.32997 6.05495 4.77769C5.57492 5.22541 5.19192 5.76692 4.92968 6.36869C4.66745 6.97045 4.53156 7.61965 4.53044 8.27607C4.525 8.92563 4.65307 9.56938 4.90669 10.1674C5.16032 10.7654 5.53409 11.305 6.00484 11.7526C6.47558 12.2002 7.03327 12.5463 7.6433 12.7695C8.25334 12.9927 8.90273 13.0882 9.55119 13.0501H9.60019C10.227 13.094 10.8563 13.014 11.4522 12.8146C12.0481 12.6153 12.5989 12.3006 13.0732 11.8884C13.5475 11.4762 13.9359 10.9747 14.2163 10.4123C14.4967 9.85004 14.6637 9.23801 14.7076 8.61119C14.7515 7.98438 14.6715 7.35506 14.4721 6.75916C14.2728 6.16326 13.9581 5.61245 13.5459 5.13819C13.1337 4.66392 12.6321 4.27549 12.0698 3.99506C11.5075 3.71464 10.8955 3.54771 10.2687 3.50382ZM10.2074 11.3053C10.0053 11.3237 9.80193 11.3219 9.60019 11.3001H9.55119C9.13001 11.3317 8.70686 11.2752 8.30876 11.1342C7.91065 10.9931 7.54633 10.7705 7.23906 10.4808C6.93179 10.191 6.68832 9.8403 6.5242 9.45113C6.36008 9.06196 6.27891 8.64284 6.28587 8.22053C6.29283 7.79823 6.38778 7.38201 6.56464 6.99846C6.7415 6.61491 6.9964 6.27246 7.31306 5.99296C7.62971 5.71346 8.00117 5.50306 8.40371 5.37519C8.80625 5.24732 9.23104 5.20479 9.65094 5.25032C10.4539 5.17652 11.2533 5.42472 11.8732 5.9403C12.4932 6.45589 12.8829 7.19663 12.9567 7.99957C13.0305 8.80251 12.7823 9.60188 12.2667 10.2218C11.7511 10.8418 11.0104 11.2315 10.2074 11.3053Z" fill="#8740ED"/>
</svg>
