<svg width="42" height="42" viewBox="0 0 42 42" fill="none" xmlns="http://www.w3.org/2000/svg">
<path d="M28.875 36.7505C15.8484 36.7505 5.25 26.152 5.25 13.1255C5.25493 10.891 6.07109 8.73441 7.54675 7.05657C9.02241 5.37872 11.0571 4.29383 13.2727 4.0036C13.8374 3.94097 14.4075 4.05988 14.9001 4.34308C15.3928 4.62627 15.7824 5.05903 16.0125 5.5786L19.3102 13.2731C19.4812 13.6725 19.5498 14.1083 19.5097 14.5409C19.4696 14.9736 19.322 15.3893 19.0805 15.7505L16.357 19.9177C17.5903 22.4204 19.6223 24.4409 22.132 25.6598L26.25 22.92C26.6108 22.6768 27.0276 22.5296 27.461 22.4923C27.8945 22.455 28.3303 22.5288 28.7273 22.7067L36.4219 25.988C36.9414 26.2181 37.3742 26.6077 37.6574 27.1003C37.9406 27.593 38.0595 28.163 37.9969 28.7278C37.7066 30.9433 36.6217 32.9781 34.9439 34.4537C33.2661 35.9294 31.1094 36.7455 28.875 36.7505ZM13.6008 6.61219C12.0175 6.81572 10.5627 7.58937 9.50873 8.78828C8.45477 9.98719 7.87394 11.5292 7.875 13.1255C7.87935 18.6937 10.0932 24.0326 14.0306 27.9699C17.9679 31.9072 23.3068 34.1211 28.875 34.1255C30.4713 34.1265 32.0133 33.5457 33.2122 32.4917C34.4111 31.4378 35.1848 29.983 35.3883 28.3997L27.6938 25.1184L23.5922 27.8583C23.2148 28.1078 22.7793 28.2555 22.328 28.2871C21.8767 28.3187 21.4249 28.2332 21.0164 28.0387C17.9598 26.5602 15.4874 24.0993 13.9945 21.0497C13.7977 20.6426 13.7094 20.1915 13.7381 19.7402C13.7669 19.289 13.9117 18.8528 14.1586 18.4739L16.8984 14.3067L13.6008 6.61219Z" fill="#8740ED"/>
</svg>
